<?xml version="1.0" standalone="no"?><!DOCTYPE svg PUBLIC "-//W3C//DTD SVG 1.1//EN" "http://www.w3.org/Graphics/SVG/1.1/DTD/svg11.dtd"><svg t="1654585642912" class="icon" viewBox="0 0 1024 1024" version="1.1" xmlns="http://www.w3.org/2000/svg" p-id="8338" xmlns:xlink="http://www.w3.org/1999/xlink" width="200" height="200"><defs><style type="text/css"></style></defs><path d="M926 913.7H239.6c-2.2 0-4-1.8-4-4V197.8c0-2.2 1.8-4 4-4H926c2.2 0 4 1.8 4 4v711.9c0 2.2-1.8 4-4 4z" fill="#FFF3F5" p-id="8339"></path><path d="M293.6 631.4H157.4c-5.5 0-10-4.5-10-10s4.5-10 10-10h136.3c5.5 0 10 4.5 10 10s-4.5 10-10.1 10zM829.5 631.4H693.2c-5.5 0-10-4.5-10-10s4.5-10 10-10h136.3c5.5 0 10 4.5 10 10s-4.5 10-10 10z"  p-id="8340"></path><path d="M829.5 794.4H157.4c-5.5 0-10-4.5-10-10V133.8c0-13.4 10.9-24.3 24.3-24.3h643.5c13.4 0 24.3 10.9 24.3 24.3v650.6c0 5.5-4.5 10-10 10z m-662.1-20h652.1V133.8c0-2.3-2-4.3-4.3-4.3H171.7c-2.3 0-4.3 2-4.3 4.3v640.6z"  p-id="8341"></path><path d="M157.4 568.6c-34.9 0-63.3-28.4-63.3-63.3s28.4-63.3 63.3-63.3c5.5 0 10 4.5 10 10s-4.5 10-10 10c-23.9 0-43.3 19.4-43.3 43.3s19.4 43.3 43.3 43.3c5.5 0 10 4.5 10 10s-4.5 10-10 10zM831.6 568.6c-5.5 0-10-4.5-10-10s4.5-10 10-10c23.9 0 43.3-19.4 43.3-43.3S855.5 462 831.6 462c-5.5 0-10-4.5-10-10s4.5-10 10-10c34.9 0 63.3 28.4 63.3 63.3s-28.4 63.3-63.3 63.3z"  p-id="8342"></path><path d="M829.5 515.3H157.4c-5.5 0-10-4.5-10-10s4.5-10 10-10h672.1c5.5 0 10 4.5 10 10s-4.5 10-10 10zM402.4 885.9H273.2c-8.4 0-15.3-6.8-15.3-15.3v-86.3c0-5.5 4.5-10 10-10h139.8c5.5 0 10 4.5 10 10v86.3c0 8.5-6.8 15.3-15.3 15.3z m-124.5-20h119.8v-71.5H277.9v71.5zM710.6 885.9H581.3c-8.4 0-15.3-6.8-15.3-15.3v-86.3c0-5.5 4.5-10 10-10h139.8c5.5 0 10 4.5 10 10v86.3c0.1 8.5-6.8 15.3-15.2 15.3z m-124.5-20h119.8v-71.5H586.1v71.5z"  p-id="8343"></path></svg>