<?xml version="1.0" ?><svg data-name="Layer 1" id="Layer_1" viewBox="0 0 60 60" xmlns="http://www.w3.org/2000/svg"><defs><style>.cls-1,.cls-2{fill:none;stroke:#535353;stroke-width:2px;}.cls-1{stroke-linecap:round;stroke-linejoin:round;}.cls-2{stroke-miterlimit:10;}</style></defs><title/><ellipse class="cls-1" cx="21" cy="40" rx="4" ry="5"/><ellipse class="cls-1" cx="40" cy="40" rx="4" ry="5"/><path class="cls-2" d="M13.43,32a7.48,7.48,0,0,1,5-1.9c2.79-.07,5.59.16,8.38,0.18,3.08,0,6.16-.07,9.24-0.13,1.77,0,3.54-.15,5.31-0.18,4.78-.08,7.66,4.39,8.1,7.63a13.69,13.69,0,0,1-.64,6.21,8.45,8.45,0,0,1-5.64,5.54A31.66,31.66,0,0,1,33.87,51c-1.31,0-2.63,0-3.94,0a41.61,41.61,0,0,1-12-1.24c-5-1.4-6.8-4.18-7.28-9.27C10.3,37.28,10.95,34.31,13.43,32Z"/><path class="cls-2" d="M6.65,46.76c3.3,5.17,8.22,7.44,13.89,7.93,4.83,0.41,9.7.3,14.55,0.31a27.42,27.42,0,0,0,10.18-1.66,16.2,16.2,0,0,0,10.07-11,30.13,30.13,0,0,0,1.2-9.62,16.52,16.52,0,0,0-3-9.43,3.78,3.78,0,0,1-1-2.86A23.69,23.69,0,0,0,52.21,15a25,25,0,0,0-1.79-6.56,21.66,21.66,0,0,0-6.49,2c-2.12,1.22-4.17,2.55-6.27,3.81a1.34,1.34,0,0,1-.85.18,40.16,40.16,0,0,0-13.47,0,1.73,1.73,0,0,1-1.07-.24c-1.11-.67-2.16-1.43-3.28-2.09A24.7,24.7,0,0,0,9.6,8.46C9.51,8.67,9.43,8.83,9.36,9a30.68,30.68,0,0,0-1.86,8.71,15.94,15.94,0,0,0,0,3.27,1.59,1.59,0,0,1-.35,1.4,16,16,0,0,0-2.78,5.05,23.44,23.44,0,0,0-.57,10.87A21,21,0,0,0,6.65,46.76Z"/></svg>