<?xml version="1.0" standalone="no"?><!DOCTYPE svg PUBLIC "-//W3C//DTD SVG 1.1//EN" "http://www.w3.org/Graphics/SVG/1.1/DTD/svg11.dtd"><svg t="1654584657295" class="icon" viewBox="0 0 1024 1024" version="1.1" xmlns="http://www.w3.org/2000/svg" p-id="2705" xmlns:xlink="http://www.w3.org/1999/xlink" width="200" height="200"><defs><style type="text/css"></style></defs><path d="M464.213333 904.533333c-40.96 0-76.8-22.186667-105.813333-42.666666-40.96-25.6-52.906667-30.72-64.853333-17.066667-61.44 64.853333-105.813333 40.96-117.76 32.426667-27.306667-20.48-37.546667-59.733333-22.186667-88.746667l170.666667-322.56-54.613334-196.266667c-8.533333-29.013333-1.706667-59.733333 13.653334-81.92 11.946667-15.36 29.013333-25.6 47.786666-25.6h58.026667l3.413333 11.946667c13.653333 44.373333 44.373333 75.093333 78.506667 75.093333s64.853333-30.72 78.506667-75.093333l3.413333-11.946667h54.613333c18.773333 0 34.133333 8.533333 47.786667 25.6 17.066667 22.186667 22.186667 52.906667 13.653333 81.92L614.4 465.92l170.666667 322.56c17.066667 34.133333 15.36 68.266667-5.12 90.453333-18.773333 20.48-47.786667 23.893333-81.92 11.946667-11.946667-3.413333-23.893333-15.36-37.546667-29.013333-13.653333-13.653333-32.426667-32.426667-44.373333-30.72-17.066667 1.706667-30.72 13.653333-46.08 27.306666-23.893333 20.48-54.613333 46.08-105.813334 46.08z m-158.72-102.4c23.893333 0 47.786667 15.36 71.68 30.72 25.6 17.066667 56.32 35.84 87.04 37.546667h1.706667c39.253333 0 63.146667-20.48 85.333333-39.253333 18.773333-15.36 37.546667-32.426667 63.146667-34.133334 29.013333-5.12 54.613333 18.773333 73.386667 39.253334 8.533333 8.533333 18.773333 18.773333 23.893333 20.48 20.48 6.826667 37.546667 6.826667 46.08-3.413334 10.24-10.24 8.533333-32.426667 0-52.906666L578.56 469.333333l58.026667-208.213333c5.12-18.773333 1.706667-39.253333-8.533334-52.906667-3.413333-5.12-10.24-11.946667-20.48-11.946666h-29.013333c-18.773333 52.906667-59.733333 87.04-107.52 87.04s-87.04-34.133333-107.52-87.04h-34.133333c-8.533333 0-15.36 6.826667-20.48 11.946666-10.24 13.653333-13.653333 34.133333-8.533334 52.906667L358.4 469.333333 182.613333 803.84c-6.826667 13.653333-1.706667 35.84 11.946667 46.08 17.066667 11.946667 44.373333 3.413333 71.68-27.306667 13.653333-13.653333 25.6-20.48 39.253333-20.48z" fill="#333333" p-id="2706"></path><path d="M286.72 834.56h-3.413333c-5.12-1.706667-6.826667-6.826667-5.12-10.24l71.68-184.32c1.706667-5.12 6.826667-6.826667 10.24-5.12 5.12 1.706667 6.826667 6.826667 5.12 10.24l-71.68 184.32c0 3.413333-3.413333 5.12-6.826667 5.12zM614.4 822.613333c-3.413333 0-6.826667-1.706667-8.533333-5.12L529.066667 619.52c-1.706667-5.12 0-8.533333 5.12-10.24 5.12-1.706667 8.533333 0 10.24 5.12l78.506666 197.973333c1.706667 5.12 0 8.533333-5.12 10.24H614.4zM597.333333 488.106667h-158.72c-10.24 0-17.066667-6.826667-17.066666-17.066667s6.826667-17.066667 17.066666-17.066667H597.333333c10.24 0 17.066667 6.826667 17.066667 17.066667s-8.533333 17.066667-17.066667 17.066667z" fill="#333333" p-id="2707"></path></svg>