<?xml version="1.0" ?><!DOCTYPE svg  PUBLIC '-//W3C//DTD SVG 1.1//EN'  'http://www.w3.org/Graphics/SVG/1.1/DTD/svg11.dtd'><svg height="512px" style="enable-background:new 0 0 512 512;" version="1.1" viewBox="0 0 512 512" width="512px" xml:space="preserve" xmlns="http://www.w3.org/2000/svg" xmlns:xlink="http://www.w3.org/1999/xlink"><g id="_x31_49"><g><g><g><g><g><g><path d="M142.394,187.689c0.287-0.208-0.318-0.675-0.374-0.815         C141.712,187.443,142.544,187.818,142.394,187.689z" style="fill:#202020;"/><polygon points="140.428,192.66 140.236,192.403 140.42,193.407        " style="fill:#202020;"/><path d="M137.822,196.043c1.272,0.453,0.769-1.355,1.598-1.682l0.311,0.081l-0.619-0.911         C138.68,194.373,138.496,195.738,137.822,196.043z" style="fill:#202020;"/><path d="M134.207,196.218c0.493,0.184,0.058,0.659,0.446-0.339c-0.075,0.009-0.11,0.002-0.16,0.003         C134.443,195.961,134.366,196.063,134.207,196.218z" style="fill:#202020;"/><path d="M134.493,195.882C134.732,195.493,133.973,195.87,134.493,195.882L134.493,195.882z" style="fill:#202020;"/><path d="M133.258,198.091c0,0,0.005-0.071,0.014-0.177c0.019-0.097,0.044-0.227,0.069-0.356         c0.055-0.265,0.109-0.53,0.109-0.53c-0.365-0.007-0.971,0.705-0.952,0.313C132.169,198.453,132.57,198.368,133.258,198.091z" style="fill:#202020;"/><path d="M133.689,199.321c-0.024,0.047,0.024-0.463,0.031-0.475         C133.583,198.839,133.444,199.014,133.689,199.321z" style="fill:#202020;"/><path d="M133.921,197.747c0,0-0.066,0.264-0.133,0.528c-0.034,0.286-0.068,0.571-0.068,0.571         c0.249-0.024,0.612,0.189,0.096-0.503C134.103,198.613,133.878,198.248,133.921,197.747z" style="fill:#202020;"/><path d="M134.389,197.444c0.427-0.104,0.826-0.347,0.836,0.398         C135.753,196.822,134.918,196.416,134.389,197.444z" style="fill:#202020;"/><path d="M138.77,197.022l0.565-0.127l-0.118-0.565C139.27,196.608,138.429,196.801,138.77,197.022z" style="fill:#202020;"/><path d="M130.836,201.313c0.229,0.159,0.745,0.164,1.079,0.288l-0.084-0.528         C131.562,201.182,131.214,201.475,130.836,201.313z" style="fill:#202020;"/><path d="M131.915,201.601l0.126,0.79C132.354,201.905,132.203,201.708,131.915,201.601z" style="fill:#202020;"/><path d="M134.924,200.076c0,0-0.025-0.087-0.063-0.218c-0.03-0.146-0.044-0.39-0.065-0.621         c-0.023-0.24-0.033-0.477-0.017-0.638c0.009-0.17,0.015-0.283,0.015-0.283s-0.092,0.503-0.061,1.058         c0.003,0.132,0.006,0.264,0.008,0.388c0.019,0.093,0.036,0.18,0.051,0.254c0.03,0.148,0.05,0.248,0.05,0.248L134.924,200.076         z" style="fill:#202020;"/><polygon points="129.676,203.483 129.276,202.865 129.835,203.886        " style="fill:#202020;"/><path d="M129.026,204.984c-0.347-0.483-0.967-0.083-1.125-0.486c-0.12,0.438,0.111,0.982,0.318,1.473         C128.182,205.545,128.412,205.229,129.026,204.984z" style="fill:#202020;"/><path d="M128.486,206.753c-0.03-0.219-0.146-0.49-0.267-0.782         C128.239,206.198,128.309,206.447,128.486,206.753z" style="fill:#202020;"/><path d="M131.416,203.303c-0.171-0.032-0.604-0.148-0.934,0.088l0.807,0.132         C131.328,203.456,131.371,203.38,131.416,203.303z" style="fill:#202020;"/><path d="M131.315,203.526l-0.026-0.003c-0.146,0.234-0.247,0.397-0.29,0.466         C131.039,203.931,131.134,203.792,131.315,203.526z" style="fill:#202020;"/><path d="M131.448,203.248c-0.012,0.021-0.021,0.035-0.033,0.055         C131.495,203.316,131.524,203.315,131.448,203.248z" style="fill:#202020;"/><path d="M133.523,201.253c0.212,0.536,0.264,1.451,1.204,1.077         C134.379,201.845,133.843,202.06,133.523,201.253z" style="fill:#202020;"/><path d="M132.456,203.415l0.472-0.526c-0.188-0.083-0.511-0.11-0.617-0.376L132.456,203.415z" style="fill:#202020;"/><polygon points="132.521,203.825 132.456,203.415 132.281,203.61        " style="fill:#202020;"/><path d="M129.671,206.046c0.165,0.417,0.042,0.718-0.078,1.068c0.316-0.278,0.574-0.6,0.75-0.942         C130.15,206.012,129.839,205.661,129.671,206.046z" style="fill:#202020;"/><path d="M130.53,204.853c0.003,0.024,0.007,0.056,0.009,0.079         C130.617,204.926,130.65,204.907,130.53,204.853z" style="fill:#202020;"/><path d="M127.938,210.306c0.052,0.005,0.099,0.009,0.152,0.014c-0.038-0.025-0.07-0.045-0.113-0.074         L127.938,210.306z" style="fill:#202020;"/><path d="M130.501,206.181c0.269-0.192,0.18-0.436,0.044-0.695c-0.031,0.231-0.093,0.462-0.203,0.687         C130.43,206.245,130.493,206.282,130.501,206.181z" style="fill:#202020;"/><path d="M128.348,207.812c0.215-0.062,0.417-0.153,0.614-0.256         C128.675,207.575,128.193,207.67,128.348,207.812z" style="fill:#202020;"/><path d="M130.303,204.921c-0.004-0.019-0.011-0.037-0.011-0.055         C130.1,204.875,130.178,204.902,130.303,204.921z" style="fill:#202020;"/><path d="M130.303,204.921c0.03,0.186,0.146,0.38,0.242,0.564c0.028-0.187,0.03-0.373-0.006-0.554         C130.474,204.939,130.383,204.933,130.303,204.921z" style="fill:#202020;"/><path d="M131.873,213.566c-0.617-0.377-0.854-1.371,0.14-1.609c-0.178-0.832-2.482-1.539-3.923-1.638         c0.27,0.163,0.528,0.296,0.596,1.092c0.458-0.03,1.507-0.91,1.824-0.104c-0.082,0.966-0.563,0.535-1.102,0.747         c0.968,0.084,0.638,1.613,1.9,2.046l-0.052-0.912C131.445,213.271,131.606,213.674,131.873,213.566z" style="fill:#202020;"/><path d="M128.747,209.209l0.048-0.288c-0.257,0.224-0.617,0.293-1.311,0.406         c0.1,0.573,0.293,0.781,0.492,0.919l0.718-1.171L128.747,209.209z" style="fill:#202020;"/><path d="M129.366,207.81c0.597,0.553,0.586,1.3,1.528,1.326c0.327-0.75-0.319-0.809-0.397-1.398         c-0.433,1.26-0.214-0.537-1.046,0.104c0-0.291,0.071-0.517,0.143-0.727c-0.194,0.167-0.404,0.316-0.631,0.441         c0.022-0.002,0.039-0.003,0.057-0.004l0-0.007l0.011,0.007c0.113-0.005,0.174,0.005,0.094,0.036         c0.007,0.008,0.003,0.024,0.002,0.032c0.093,0.058,0.166,0.124,0.235,0.188c-0.319,0.265-0.208-0.04-0.235-0.188         c-0.032-0.021-0.06-0.047-0.096-0.068h-0.011l-0.224,1.37C129.021,208.723,129.161,208.401,129.366,207.81z" style="fill:#202020;"/><path d="M135.902,203.73c-0.08,0.004-0.129-0.023-0.181-0.046         C135.767,203.804,135.811,203.863,135.902,203.73z" style="fill:#202020;"/><path d="M135.232,203.995c-0.053-0.135-0.295-0.351-0.08-0.59c0.333-0.132,0.333,0.174,0.569,0.28         c-0.099-0.263-0.198-0.843-0.807-0.495l0.052,0.132c-0.483,0.349-1.666,0.506-1.719,0.374         C133.945,203.882,134.455,203.992,135.232,203.995z" style="fill:#202020;"/><path d="M132.459,206.028l-0.163,1.153l0.86-0.186l-0.375-0.162         C133.21,206.352,132.702,206.241,132.459,206.028z" style="fill:#202020;"/><polygon points="127.533,210.239 126.864,209.729 127.612,210.83        " style="fill:#202020;"/><polygon points="126.965,211.553 126.349,211.176 126.563,211.71        " style="fill:#202020;"/><path d="M390.972,261.086l-0.455-2.313C390.698,259.877,390.844,260.578,390.972,261.086z" style="fill:#202020;"/><path d="M390.731,275.913l0.339,0.394C390.903,275.587,390.771,275.292,390.731,275.913z" style="fill:#202020;"/><path d="M194.227,421.054c3.066,1.133,6.449,2.687,6.185,1.829l-0.856-0.925         C197.323,421.771,195.642,421.435,194.227,421.054z" style="fill:#202020;"/><path d="M346.855,394.97c-0.259,0.178-0.529,0.363-0.797,0.547c-0.308,0.763-0.596,1.48-0.854,2.123         C345.701,396.837,346.265,395.926,346.855,394.97z" style="fill:#202020;"/><path d="M345.844,391.138l3.094-2.856C348.205,388.873,347.192,389.799,345.844,391.138z" style="fill:#202020;"/><path d="M354.044,189.418c0,0-0.628-0.186-1.253-0.34c-0.623-0.149-1.246-0.298-1.246-0.298         C354.769,190.804,353.574,189.605,354.044,189.418z" style="fill:#202020;"/><path d="M116.037,306.972c0.32,2.785,0.689,4.979,1.087,6.889         C116.814,310.477,116.875,307.691,116.037,306.972z" style="fill:#202020;"/><path d="M399.359,266.483c-0.15-1.352-0.314-1.927-0.489-1.886         C399.012,265.987,399.167,266.773,399.359,266.483z" style="fill:#202020;"/><path d="M118.923,321.711c-0.033-0.499-0.102-0.979-0.149-1.483c-0.583-1.953-1.144-3.928-1.65-6.367         C117.348,316.358,117.783,319.186,118.923,321.711z" style="fill:#202020;"/><path d="M162.014,185.435c-0.045-0.019-0.089-0.018-0.134-0.044         C161.914,185.493,161.958,185.479,162.014,185.435z" style="fill:#202020;"/><path d="M146.737,185.575c0.083-0.118,0.265-0.247,0.431-0.376         C147.053,185.213,146.916,185.316,146.737,185.575z" style="fill:#202020;"/><path d="M112.309,245.181C112.742,243.061,112.299,244.829,112.309,245.181L112.309,245.181z" style="fill:#202020;"/><path d="M117.916,235.989c-0.041,0.451-0.028,0.806,0.132,0.906         C117.914,236.678,117.88,236.365,117.916,235.989z" style="fill:#202020;"/><path d="M130.59,339.746c0.021,0.056,0.039,0.101,0.064,0.166         C130.567,339.281,130.579,339.392,130.59,339.746z" style="fill:#202020;"/><path d="M113.387,242.094c-0.276,0.766-0.565,1.658-0.848,2.637         C112.7,244.309,112.962,243.507,113.387,242.094z" style="fill:#202020;"/><path d="M112.926,242.432c0.196-0.724,0.367-1.273,0.528-1.799         C113.404,240.348,113.233,240.532,112.926,242.432z" style="fill:#202020;"/><path d="M111.771,248.408c0.107-0.668,0.225-1.313,0.351-1.938c0.065-0.312,0.13-0.619,0.193-0.923         c0.076-0.275,0.15-0.547,0.224-0.816c-0.147,0.403-0.23,0.567-0.23,0.45C112.179,245.804,112.033,246.818,111.771,248.408z" style="fill:#202020;"/><path d="M216.469,174.805c-0.132-0.041-0.286-0.074-0.43-0.125         C213.938,174.768,214.85,174.82,216.469,174.805z" style="fill:#202020;"/><path d="M246.307,402.845c-0.1,0.022-0.151,0.051-0.241,0.073c0.103-0.006,0.23-0.014,0.323-0.019         L246.307,402.845z" style="fill:#202020;"/><path d="M254.052,401.178c-3.297,1.433-5.125,1.572-7.663,1.722c0,0,0.709,0.475,1.418,0.948         c0.687,0.478,1.374,0.955,1.374,0.955s1.189-0.905,2.378-1.812C252.806,402.085,254.052,401.178,254.052,401.178z" style="fill:#202020;"/><path d="M380.729,226.131l1.755,4.941c-3.916-5.034-5.642-9.25-4.288-4.458         c1.267-0.241,3.641,4.214,6.014,8.668l0.444,0.834l0.222,0.415c0.067,0.125,0.047,0.08,0.074,0.128         c0.031,0.023,0.071,0.175,0.109,0.286c0.075,0.247,0.149,0.491,0.222,0.731c0.325,1.061,0.652,2.052,0.979,2.904         c0.615,1.768,1.219,2.995,1.863,3.021c0,0,0.063,0.845,0.127,1.689c0.072,0.843,0.108,1.687,0.109,1.687         c-0.162-0.942-0.36-1.058-0.545-1.984c0.148,3.291,0.767,4.371,1.615,5.679c0.435,0.68,0.827,1.309,1.199,2.302         c0.181,0.518,0.377,1.03,0.514,1.829c0.131,0.826,0.237,1.784,0.313,2.919c0.035,0.795,0.056,1.533,0.059,2.161         c-0.006,0.613,0.012,1.192-0.092,1.429c-0.156,0.557-0.314,0.596-0.451-0.227l0.622,5.85c-0.038,1.929-0.47,1.458-0.433-0.46         c0,0,0.016,0.631,0.039,1.578c0.004,0.934,0.098,2.241,0.043,3.441c-0.052,2.444-0.104,4.888-0.104,4.888l-0.069-0.076         c0.155,0.711,0.314,1.885,0.465,3.077c0.124,1.189,0.333,2.421,0.296,3.2c-0.741,2.455-0.064-1.275-0.472-0.665l-0.252,5.491         c-0.999,2.108-0.847-2.439-0.273-6.158c-1.521,2.42-1.611,3.501-1.594,5.381c-0.002,0.935-0.002,2.06-0.193,3.614         c-0.096,0.777-0.24,1.661-0.455,2.68c-0.109,0.51-0.23,1.052-0.384,1.632c-0.193,0.587-0.411,1.212-0.655,1.877         c0,0,0.054-0.324,0.135-0.811c0.073-0.484,0.216-1.14,0.251-1.773c0.117-1.274,0.233-2.549,0.233-2.549         c-0.47,0.751-0.828,1.559-1.127,2.436c-0.288,0.874-0.669,1.859-0.972,2.903c-0.642,2.099-1.291,4.522-2.378,7.312         c0.755-1.254,4.806-11.117,4.059-5.1c-0.563,1.626-1.15,3.794-1.395,7.09c-0.863-0.166-1.363,2.985-2.204,6.886l-1.07-0.543         c-0.633,4.273,0.018,4.088-0.041,6.693c-0.52,2.376-1.359,3.551-1.959,4.379c-0.633,0.808-1.194,1.166-1.732,1.561         c-1.276,3.433-0.525,2.36,0.224,1.445c0.75-0.913,1.499-1.678,0.173,2.532c-0.565,1.432-1.243,2.754-1.751,4.066         c-0.534,1.31-1.009,2.602-1.466,3.944c-0.113,0.337-0.226,0.676-0.341,1.018c-0.104,0.325-0.245,0.742-0.307,0.969         c-0.054,0.166-0.027,0.117-0.11,0.313l-0.237,0.531c-0.157,0.357-0.317,0.721-0.48,1.092         c-0.641,1.486-1.33,3.084-2.099,4.865c-2.506,3.786-0.25-1.035-1.315,0.233l-1.091,3.967         c-0.487,0.853-0.587,0.438-0.638,0.229c-1.291,3.141,0.891,0.798-1.358,5.618c0.446,1.87-6.838,8.695-8.686,15.168         c-1.062,1.267-0.255-1.027-0.888-0.807c-0.867,2.094-1.487,3.589-1.973,4.762c-0.242,0.587-0.451,1.094-0.642,1.554         c-0.093,0.23-0.182,0.45-0.268,0.662c-0.048,0.147-0.073,0.241-0.13,0.37c-0.757,1.531-1.37,2.919-2.862,6.335         c0,0-1.012,1.184-2.024,2.366c-0.484,0.621-1.05,1.115-1.462,1.495c-0.41,0.381-0.685,0.635-0.685,0.635         c1.728-1.39,1.936-0.895,1.342,0.559c-0.608,1.456-2.052,3.9-3.424,6.13c1.405-0.956,2.582-1.802,3.332-2.403         c0,0-1.209,1.69-2.461,3.354c-1.252,1.666-2.503,3.333-2.503,3.333c-0.805,0.628-0.55-0.27-0.02-1.613         c-0.301,0.489-0.582,0.955-0.792,1.328c-1.147,0.968-1.615,1.021-1.641,0.619c-0.029-0.406,0.345-1.287,0.79-2.308         c0.843-0.596,1.681-1.188,2.497-1.763c0.82-1.993,1.443-3.962,0.653-4.079c-0.245,0.493-0.819,1.36-1.519,2.248         c0.204-0.525,0.297-0.892,0.047-0.782c-0.276,0.129-0.645,0.94-1.305,2.146l-2.2,0.543l0.088,0.683         c0,0-0.477,0.494-1.2,1.137c-0.719,0.655-1.677,1.529-2.635,2.404c-2,1.695-4.095,3.323-4.095,3.323         c-1.181,1.521-2.325,2.997-3.493,4.504c-0.273,0.347-0.549,0.695-0.825,1.047l-0.39,0.492         c-0.13,0.176-0.266,0.339-0.425,0.444c-0.325,0.248-0.577,0.505-0.998,0.786c-0.421,0.277-0.848,0.559-1.28,0.845         c-1.753,1.129-3.708,2.27-5.92,3.402c-0.277,0.142-0.558,0.285-0.842,0.43c-0.275,0.132-0.522,0.29-0.809,0.391         c-0.619,0.148-1.255,0.3-1.907,0.456c-1.346,0.306-2.768,0.605-4.278,0.896c2.879-1.387,0.422-1.633,0.421-2.773         c0.874,0.173,1.895,0.142,3.034-0.014c0.569-0.078,1.169-0.188,1.794-0.316c0.238-0.064,0.419-0.082,0.625-0.183         c0.194-0.102,0.363-0.197,0.716-0.365c2.451-1.197,5.241-2.669,8.068-3.783c-2.996,1.149-2.545,0.373-1.881-0.118         c0,0-0.58,0.336-1.521,0.815c-0.934,0.479-2.165,1.144-3.431,1.761c-0.624,0.312-1.249,0.623-1.834,0.915         c-0.166,0.084-0.325,0.221-0.488,0.255c-0.081,0.026-0.161,0.053-0.237,0.078c-0.058,0.022-0.253,0.064-0.364,0.094         c-1.039,0.256-1.732,0.427-1.732,0.427c0.12-0.949-2.488-0.332-5.481-0.275c0.622,0.368,0.42,0.705-0.303,1.022         c-0.362,0.158-0.854,0.312-1.438,0.462c-0.218,0.058-0.452,0.12-0.699,0.187c-0.212,0.085-0.424,0.018-0.654,0.022         c-0.685-0.06-1.419-0.124-2.168-0.189c-0.776-0.073-1.567-0.149-2.339-0.223c-1.547-0.142-3.022-0.254-4.166-0.254         c-0.085-0.611,1.14-1.102,6.354-0.311c-1.388-0.519-2.555-0.696-3.646-0.709c-0.545-0.006-1.069,0.029-1.586,0.086         c-0.26,0.033-0.517,0.065-0.771,0.098l-0.384,0.056l-0.192,0.029l-0.096,0.014l-0.049,0.008l-0.012,0.002         c-0.012,0.025,0.02-0.085-0.067,0.174l-0.368,1.07l-0.369,1.071l-0.093,0.268c-0.782,2.418,1.01-3.132,0.828-2.573h-0.003         h-0.012l-0.05-0.001l-0.098-0.003l-0.196-0.006l-0.394-0.012c-0.262-0.012-0.525-0.024-0.792-0.036         c-0.532-0.033-1.075-0.087-1.638-0.185c-1.144-0.186-2.291-0.589-3.615-1.333c1.277,0.411,1.938,0.73,2.533,0.602         c-1.569-0.248-4.135-1.042-6.095-1.849c-1.983-0.86-3.327-1.623-2.356-1.543l1.309,0.479         c-2.15-0.866-4.879-1.922-7.788-3.002c-0.743-0.257-1.432-0.569-2.245-0.782c-0.813-0.208-1.63-0.418-2.445-0.627         c-1.557-0.336-3.101-0.677-4.599-0.956c-1.51-0.261-2.939-0.507-4.294-0.691c-1.415-0.136-2.719-0.282-3.812-0.282         c-2.177,0.042-3.648,0.219-4.007,0.575c-0.095-0.208,1.3-1.758,1.911-2.02c0,0-1.079,0.234-2.697,0.584         c-0.397,0.089-0.828,0.184-1.283,0.285c-0.447,0.201-0.919,0.412-1.408,0.632c-0.955,0.44-1.974,0.91-2.993,1.381         c-2.008,0.95-3.943,1.851-5.354,2.593c-1.398,0.753-2.33,1.255-2.33,1.255c0.572-0.78-0.625-1.704-1.087-2.688         c-0.454-0.979-0.154-2.053,3.707-3.109c-1.146,0.084-2.409,0.23-3.981,0.492c-1.568,0.271-3.346,0.763-5.592,1.497         c1.535-0.155,4.097,1.06,2.12,1.619c-2.913-0.119-3.918-0.01-5.079,0.087c-0.293,0.031-0.583,0.055-0.939,0.104         c-0.371,0.061-0.786,0.128-1.283,0.209c-0.493,0.08-1.066,0.173-1.754,0.285c-0.612,0.107-1.326,0.233-2.173,0.383         c2.157-0.488,0.607,2.301-2.71,3.45c0.407-0.482-0.952-1.843,0.163-2.484c0,0-1.858,1.229-3.716,2.457         c-0.938,0.617-1.875,1.234-2.579,1.697c-0.701,0.474-1.189,0.755-1.189,0.755c1.944-1.063-0.133-1.752-2.196-1.737         c0.497,0.045-1.324,0.637-3.527,1.245c-2.146,0.2-4.656,0.43-5.717,0.657l3.561,0.063c-2.331,0.188-4.019,0.531-5.423,0.956         c-0.175,0.056-0.346,0.11-0.513,0.163c-0.173,0.057-0.34,0.114-0.413,0.162c-0.199,0.084-0.389,0.249-0.608,0.282         c-0.348,0.12-1.084,0.198-1.695,0.296c-1.257,0.19-2.513,0.389-4.061,0.442c-0.773,0.026-1.62,0.018-2.576-0.047         c-0.478-0.032-0.983-0.077-1.521-0.14c-0.261-0.032-0.531-0.066-0.81-0.102c-0.134-0.019-0.271-0.038-0.409-0.059         c-0.133-0.044-0.265-0.104-0.399-0.158c0.147,0,0.307-0.016,0.464-0.071c0.162-0.077,0.318-0.177,0.452-0.292         c0.268-0.231,0.442-0.529,0.482-0.842c0.011-0.316-0.083-0.644-0.337-0.931c-0.139-0.157-0.264-0.347-0.536-0.54         c-0.354-0.233-0.798-0.478-1.347-0.732c-1.222,0.098-3.995,0.295-7.535,0.02c-0.88-0.079-1.812-0.184-2.782-0.324         c-0.976-0.223-2.121-0.43-3.087-1.017c-1.851-0.951-3.711-2.079-5.453-3.424l-0.824-1.58c0,0-1.336-1.035-2.673-2.071         c-0.664-0.532-1.327-1.064-1.825-1.464c-0.5-0.395-0.827-0.68-0.828-0.68c2.062,0.963,5.753,2.852,9.673,4.802         c0.977,0.486,1.967,0.979,2.95,1.469c1.027,0.499,1.833,0.953,2.73,1.038c1.955,0.407,3.78,0.786,5.285,1.1         c-1.563-0.935-1.672-1.233-2.058-1.523c-0.187-0.15-0.431-0.31-0.928-0.57c-0.125-0.063-0.265-0.135-0.423-0.216         c-0.147-0.075-0.375-0.179-0.471-0.242c-0.128-0.069-0.271-0.146-0.429-0.231c-0.081-0.04-0.166-0.081-0.255-0.125         l-0.14-0.064l-0.036-0.017l-0.018-0.008l-0.009-0.004c-0.004,0.003,0.003-0.011-0.011,0.007l-0.135,0.179         c-0.363,0.474-0.728,0.949-1.096,1.429l-0.278,0.358c-0.07,0.087-0.304,0.398,0.021-0.053l1.198-1.667l0.212-0.294         c0.01-0.016,0.002-0.007,0.004-0.011L181,406.894l-0.007-0.015l-0.013-0.029l-0.023-0.055         c-0.012-0.036-0.022-0.067-0.032-0.095c-0.016-0.057-0.019-0.101-0.011-0.136c0.014-0.068,0.07-0.097,0.156-0.093         c0.159,0.039,0.48,0.083,0.828,0.168c0.176,0.048,0.348,0.105,0.536,0.181c0.299,0.115,0.605,0.233,0.901,0.348         c0.587,0.234,1.125,0.464,1.477,0.622c0,0-0.679-0.349-1.698-0.872c-1.184-0.665-1.263-0.558-2.502-1.766         c-1.123-1.042-2.279-2.16-3.123-2.978c-0.847-0.829-1.412-1.382-1.412-1.382c-0.21,0.643-2.196-0.784-4.119-2.267         c-1.948-1.48-3.714-3.015-3.942-2.5c0,0,0.639,0.55,1.597,1.374c0.993,0.815,2.302,1.911,3.672,2.975         c2.707,2.151,5.488,4.209,5.488,4.209c-0.199,0.64-2.265-0.034-5.089-1.72c-1.399-0.851-3-1.939-4.604-3.257         c-1.62-1.32-3.219-2.83-4.563-4.594c-0.522-1.063,0.175-1.056,1.025-0.836c0.865,0.269,1.815,0.495,1.917,0.322         c-0.472-0.159-1.976-1.783-3.36-3.369c-1.388-1.593-2.679-3.209-2.816-3.626l2.89,2.631         c-0.685-1.063-1.425-1.937-2.194-2.736c-0.75-0.811-1.616-1.503-2.298-2.331c-1.44-1.615-2.894-3.41-4.057-6.241         c-0.26-0.431-0.551-1.069-0.77-1.658c-0.021-0.091-0.029-0.182-0.033-0.27l-0.149-0.521c-0.1-0.35-0.2-0.698-0.295-1.032         c-0.388-1.333-0.761-2.428-1.167-2.416c0.413,3.693-3.064,6.342-5.08,4.823c-0.27-0.695-4.105-10.383-4.647-12.831         c-0.693-3.578,4.78,3.347,4.197,0.296c-0.354,0.048-1.631-1.444-2.129-2.085c-0.805-2.086,1.348,0.313-1.079-3.851         c-1.474-0.115-4.575-8.666-2.007-1.503c-2.556-3.975-2.161-4.525-4.844-9.365c0.131,1.926-4.76-3.06-7.331-7.063         c0.218,0.061,0.258-0.215,0.284-0.559c0.038-0.35,0.03-0.771,0.02-1.047c-0.873-2.251-1.615-4.253-2.289-6.117         c-0.327-0.936-0.68-1.822-0.944-2.716c-0.264-0.893-0.521-1.766-0.777-2.634c-0.519-1.728-1.032-3.435-1.576-5.246         c-0.131-0.454-0.302-0.901-0.41-1.38c-0.1-0.48-0.202-0.97-0.306-1.471c-0.219-0.997-0.447-2.037-0.688-3.136         c0.106-0.884-0.507-5.193,0.423-3.521c-0.501-1.205-1.174-2.263-1.821-4.958c-0.149-5.464,1.538,5.978,1.882,1.7         c-0.778-0.171-2.562-6.742-3.883-10.495c-0.818,1.417,1.827,8.945,3.143,12.683c-1.486,0.388-4.59-5.965-7.396-15.054         c-0.554-1.799-0.634-2.972-0.688-3.654c-0.034-0.69,0.06-0.926,0.189-0.969c0.258-0.086,0.656,0.595,0.448-0.034         c-0.988-7.018-1.987-9.934-2.901-12.605c-0.112-0.334-0.223-0.664-0.334-0.995c-0.085-0.338-0.154-0.683-0.226-1.036         c-0.139-0.709-0.259-1.463-0.348-2.322c-0.088-0.86-0.145-1.825-0.157-2.953c0.004-1.107,0.068-2.358,0.186-3.834         c0.918-4.672,1.944-0.221,2.637-1.262c0.221,3.05,0.091,5.387-0.014,7.506c-0.063,1.062-0.124,2.062-0.183,3.057         c-0.071,1.001,0.083,1.975,0.199,3.009c0,0-0.064-1.281-0.079-2.563c0.071-1.288,0.142-2.577,0.142-2.577         c0.098,0.482,0.196,1.098,0.284,1.783c0.05,0.343,0.071,0.705,0.138,1.072c0.068,0.368,0.138,0.745,0.208,1.125         c0.262,1.52,0.453,3.078,0.454,4.198c0.095-0.993-0.037-2.959-0.294-5.52c-0.002-2.579-0.15-5.746-0.145-9.15         c-0.073-3.412,0.031-6.998,0.297-10.404c0.474-3.417,0.973-6.658,1.5-9.332c-0.066-0.988,0.042-2.255,0.005-3.157         c-0.002-0.889-0.063-1.355-0.438-0.628c0,0-0.048,0.208-0.087,0.533c-0.043,0.322-0.102,0.751-0.16,1.18         c-0.058,0.428-0.116,0.856-0.159,1.177c-0.039,0.32-0.049,0.534-0.049,0.534c-0.29,0.758-0.454,0.727-0.552,0.323         c-0.048-0.202-0.081-0.497-0.103-0.834c0.005-0.346,0.011-0.735,0.017-1.115c0.044-1.521,0.124-2.931-0.455-0.72         c0.049-1.24,0.205-2.414,0.328-3.685c0.117-1.27,0.328-2.552,0.559-3.9c0.219-1.349,0.547-2.737,0.948-4.18         c0.106-0.37,0.213-0.744,0.322-1.124l0.22-0.729l0.374-0.706c0.404-0.743,0.772-1.379,1.202-2.088l1.55-0.569         c-0.177-0.013-0.811,0.851-1.467,1.94c-0.159,0.275-0.324,0.562-0.49,0.849c-0.151,0.321-0.442,0.724-0.521,1.103         c-0.052,0.193-0.103,0.383-0.153,0.567c-0.035,0.152-0.069,0.3-0.102,0.442c-0.061,0.285-0.106,0.551-0.131,0.784         c0.038-0.346,0.134-0.75,0.271-1.198c0.084-0.263,0.169-0.561,0.289-0.853c0.153-0.265,0.357-0.616,0.496-0.833         c0.592-0.937,1.307-1.975,1.999-3.033c1.383-2.117,2.674-4.319,2.705-5.969l-2.772,3.681         c1.624-4.363,3.193-9.981,6.142-14.92c-2.179,1.815-0.495,1.233-3.514,4.267c3.049-2.406-6.804,13.018-2.698,8.745         c-1.625,1.516-2.599,3.053-3.621,4.745c-0.256,0.423-0.517,0.854-0.787,1.3c-0.17,0.309-0.45,0.736-0.625,1.118         c-0.072,0.201-0.146,0.404-0.22,0.609l-0.111,0.301l-0.083,0.202c-0.442,1.08-0.992,2.235-1.682,3.519         c0.402-0.072,1.191-1.75-0.256,3.019c0.047,0.244,0.043,0.79,0.037,1.135c-0.047,0.148-0.063,0.199-0.104,0.326         c0.038-0.095,0.067-0.166,0.104-0.261c0.005,0.226,0.011,0.247,0.039-0.097c0.458-1.106,0.889-1.982,1.187-2.305         c0.049,0.65-0.048,1.604-0.206,2.725c-0.135,1.136-0.343,2.424-0.558,3.723c-0.408,2.875-0.528,5.292-0.476,6.61         c-0.511,2.783-0.277-1.231-0.851,0.247l0.191,3.89c-0.415,0.15-1.013,1.883-1.37,2.924c-0.171,0.535-0.322,0.833-0.438,0.52         c-0.058-0.157-0.108-0.468-0.146-0.979c-0.019-0.469,0.001-1.07,0.038-1.905c0,0-0.046,0.368-0.116,0.922         c-0.032,0.282-0.081,0.587-0.114,0.958c-0.021,0.4-0.042,0.828-0.064,1.255c-0.077,1.712-0.153,3.424-0.153,3.424         c-0.34,2.121-0.408,4.131-0.457,6.25c-0.013,1.048-0.015,2.055,0.036,3.036c0.058,0.996,0.143,1.92,0.257,2.715         c-0.018,0.758,0.047,1.611,0.144,2.421c0.05,0.405,0.101,0.801,0.165,1.165c0.094,0.355,0.181,0.686,0.256,0.974         c0.316,1.148,0.487,1.616,0.006,0.373c0,0,0.438,2.421,0.875,4.842c0.205,1.212,0.485,2.401,0.662,3.302         c0.186,0.897,0.311,1.496,0.311,1.496l-0.188,0.122c0.171,1.194,0.368,2.393,0.583,3.597c0.213,1.205,0.422,2.425,0.776,3.59         c0.643,2.357,1.296,4.754,1.959,7.189c1.287,4.88,2.442,9.949,2.936,15.413c0.227,0.765,0.456,1.536,0.695,2.343         c0.059,0.201,0.118,0.405,0.178,0.612c0.082,0.208,0.165,0.418,0.249,0.632c0.164,0.429,0.333,0.869,0.507,1.325         c0.686,1.831,1.407,3.933,2.191,6.578l-0.315,1.26c0.869,1.919,1.89,4.883,2.84,7.575c0.244,0.671,0.481,1.323,0.704,1.938         c0.079,0.203,0.144,0.39,0.234,0.597c0.113,0.212,0.224,0.421,0.333,0.626c0.141,0.258,0.276,0.506,0.405,0.74         c0.525,0.933,0.992,1.629,1.361,1.925c0.411,4.755,9.011,17.51,12.112,23.943l0.94-0.203         c1.146,2.172,2.338,4.262,3.646,6.456c0.663,1.093,1.345,2.217,2.06,3.395c0.181,0.293,0.363,0.59,0.548,0.89         c0.133,0.231,0.288,0.497,0.458,0.72l0.359,0.486c0.443,0.595,0.897,1.204,1.365,1.831l0.465-0.777         c0.876,1.026,1.756,2.276,2.661,3.687c0.924,1.392,1.772,3.041,2.903,4.553c1.084,1.559,2.224,3.196,3.392,4.875         c0.6,0.839,1.181,1.662,1.838,2.519c0.74,0.892,1.523,1.857,2.279,2.591c-0.321-0.116-0.842-0.54-1.434-1.253         c-0.589-0.685-1.225-1.521-1.572-2.146c0.149,0.283,0.296,0.56,0.46,0.843l0.602,0.9c0.409,0.587,0.855,1.224,1.279,1.709         c0.863,1.036,1.783,2.042,2.735,2.944c1.902,1.86,3.953,3.511,6.003,5.131c1.037,0.802,2.069,1.599,3.089,2.388         c0.572,0.437,1.14,0.871,1.705,1.303c0.665,0.466,1.445,0.806,2.156,1.194c0.396,0.212,0.636,0.301,0.936,0.442l0.857,0.397         c0.566,0.269,1.123,0.545,1.668,0.829c1.092,0.539,2.139,1.1,3.133,1.722c1.104,0.34,2.073,0.645,2.914,1.004         c0.423,0.176,0.82,0.359,1.202,0.548c0.241,0.117,0.479,0.233,0.714,0.348c0.279,0.114,0.518,0.304,0.826,0.359         c-0.331-0.035-0.567-0.182-0.809-0.229c0.16,0.066,0.359,0.149,0.579,0.241c0.24,0.051,0.516,0.082,0.789,0.124l0.552,0.136         l0.364,0.109c0.245,0.073,0.491,0.147,0.742,0.223c0.502,0.145,1.018,0.292,1.553,0.445c-0.9-0.333-1.767-0.626-2.53-0.815         c1.714,0.236,4.326,0.52,6.902,0.692l0.957,1.027c0.208,0.021,0.376,0.039,0.592,0.063c0.307,0.086,0.568,0.148,0.79,0.19         c0.161,0.025,0.306,0.048,0.437,0.068c0.152,0.017,0.287,0.031,0.407,0.044c0.478,0.036,0.697-0.015,0.718-0.126         c0.021-0.112-0.153-0.283-0.449-0.485c-0.148-0.102-0.327-0.21-0.527-0.323c-0.101-0.055-0.206-0.112-0.316-0.173         c-0.073-0.051-0.149-0.104-0.227-0.159l0.248,0.01l0.358,0.024c0.235,0.015,0.468,0.029,0.697,0.044         c0.225,0.038,0.457-0.021,0.682-0.071c0.224-0.048,0.443-0.096,0.658-0.143c0.481-0.101,0.693-0.174,0.975-0.258         c0.265-0.086,0.517-0.169,0.752-0.246c1.188,0.564,2.972,0.219,4.823-0.13c1.838-0.373,3.861-0.6,5.343-0.419         c0.714-0.625,3.749-1.632,6.721-3.047c2.968-1.344,5.846-2.765,6.227-3.729c0.152,0.158,0.905-0.016-0.409,0.481         c1.377-0.401,2.816-0.872,4.084-1.276c0.605-0.172,1.195-0.361,1.767-0.579c0.606-0.209,1.238-0.43,1.819-0.69l1.427,0.79         c0,0,0.349-0.184,0.872-0.46c0.532-0.263,1.24-0.613,1.949-0.963c0.714-0.351,1.428-0.7,1.964-0.963         c0.538-0.27,0.896-0.424,0.896-0.424c3.797-0.005,5.289,0.119,1.885,1.619c2.087-0.749,3.564-1.121,4.721-1.424         c1.157-0.297,1.986-0.48,2.776-0.658c0.791-0.178,1.542-0.35,2.557-0.628c0.254-0.062,0.524-0.162,0.817-0.213         c0.295-0.017,0.612-0.034,0.955-0.053c0.69-0.052,1.486-0.11,2.428-0.181l-0.4,0.687c1.32,0.113,3.087-0.033,4.624,0.102         c1.544,0.045,3.078,0.318,3.813,0.771c0.711,0.333,1.705,0.652,2.923,1.059c0.609,0.197,1.275,0.399,1.992,0.608         c0.357,0.103,0.728,0.208,1.108,0.317c0.357,0.111,0.727,0.226,1.105,0.343c0.379,0.113,0.768,0.229,1.166,0.349         c0.411,0.163,0.832,0.33,1.262,0.5c0.861,0.338,1.759,0.69,2.686,1.054c1.858,0.713,3.835,1.471,5.881,2.255         c0.999,0.398,2.107,0.772,3.232,1.15c1.117,0.38,2.248,0.765,3.384,1.151c1.142,0.394,2.216,0.71,3.328,1.074l0.826,0.266         c0.271,0.095,0.548,0.182,0.862,0.212l1.815,0.279c2.419,0.391,4.808,0.776,7.112,1.148c0.723,0.116,1.439,0.231,2.147,0.346         c0.4-0.012,0.795-0.081,1.191-0.117c0.293-0.027,0.583-0.056,0.872-0.083c1.055-0.083,2.083-0.163,3.078-0.241         c-1.684-0.823,0.183-0.858,2.517-0.902c1.182-0.023,2.42-0.041,3.5-0.177c0.381-0.051,0.739-0.103,1.06-0.17         c0.298-0.129,0.563-0.257,0.784-0.383c0.247-0.136,0.336-0.227,0.42-0.332c0.081-0.104,0.125-0.211,0.126-0.321         c1.053,0.135,3.267-0.409,0.973,0.936c1.889-0.84,3.568-1.539,5.109-2.127c0.784-0.308,1.528-0.6,2.243-0.881         c0.181-0.069,0.358-0.139,0.535-0.208c0.176-0.068,0.336-0.125,0.58-0.242c0.443-0.212,0.879-0.42,1.309-0.626         c0.456-0.194,0.768-0.477,1.124-0.729c0.343-0.264,0.683-0.524,1.02-0.784c0.585-0.484,1.031-0.904,1.529-1.384         c0.977-0.934,1.846-1.966,2.675-3.181c1.045-0.263-0.828,1.736-0.001,1.393c0.423-0.535,1.676-2.077,2.508-2.476         c0.827-0.372-0.604,1.166-1.445,2.196c1.577-1.422,2.7-2.705,3.525-3.714c0.82-1.025,1.279-1.949,1.555-2.642         c0.538-1.418,0.24-2.197-0.082-2.915c3.358-2.722,4.679-4.381,5.927-7.327c1.313-0.812,3.287-2.366,0.055,1.699         c0.489-0.542,1.481-1.642,2.698-2.988c0.605-0.697,1.345-1.499,1.993-2.328c0.583-0.854,1.184-1.734,1.773-2.598         c1.165-1.737,2.254-3.429,2.999-4.74c0.739-1.306,1.144-2.229,0.998-2.549c0.233-0.275,0.429-0.551,0.655-0.926         c0.225-0.373,0.461-0.816,0.684-1.262c0.446-0.891,0.836-1.792,0.96-2.16c3.161-5.693,3.526-6.148,6.474-11.824l-1.012,1.469         c-0.032-2.889,2.255-4.824,4.562-9.438l0.057,0.198c3.259-4.957,3.76-6.137,4.267-7.291c0.254-0.577,0.509-1.147,1.11-2.18         c0.302-0.517,0.689-1.148,1.207-1.955c0.262-0.401,0.554-0.848,0.88-1.348c0.165-0.248,0.339-0.51,0.522-0.785         c0.093-0.138,0.188-0.278,0.284-0.423c0.119-0.189,0.278-0.415,0.356-0.594c0.034-0.011-1.156,0.353-1.126,0.292         c-0.16-0.216-0.09-0.607-0.06-1.003c0.056-0.405,0.192-0.853,0.407-1.382c0.426-1.049,1.138-2.354,1.952-3.817         c0.407-0.733,0.836-1.508,1.276-2.302c0.445-0.793,0.871-1.624,1.23-2.492c0.747-1.721,1.409-3.495,1.796-5.181L386.187,328         c0.151-0.938,0.59-1.974,1.188-3.068c0.578-1.096,1.426-2.244,2.018-3.425c1.304-2.344,2.718-4.68,3.25-6.479         c0.342-0.758-0.033,1.319-0.171,2.462c3.269-9.31-0.825-1.517,0.545-8.692c0.901-1.175,1.14,2.051,2.351-2.727         c0.518-1.143,0.826-4.737,1.333-8.817c0.157-1.003,0.188-2.118,0.286-3.202c0.089-1.09,0.196-2.18,0.331-3.24         c0.268-2.121,0.644-4.125,1.199-5.791c-0.704,1.448-1.4,2.851-1.229-0.594c0.073-0.654,0.214-1.361,0.337-2.111         c0.087-0.751,0.199-1.542,0.324-2.361c0.254-1.636,0.564-3.377,0.76-5.149c0.195-1.75,0.426-3.545,0.378-5.104         c-0.037-1.568-0.203-2.998-0.584-4.165c0.127-0.659,0.25-0.909,0.368-0.938c-0.104-1.124-0.238-2.598-0.387-4.218         c-0.059-0.873-0.2-1.447-0.312-2.181c-0.121-0.703-0.244-1.415-0.364-2.116c-0.132-0.704-0.261-1.396-0.384-2.057         c-0.161-0.717-0.349-1.441-0.519-2.074c-0.173-0.639-0.344-1.213-0.508-1.7c-0.181-0.459-0.353-0.836-0.512-1.111         c0.543-1.042,0.458-3.094-0.055-5.548c-0.262-1.226-0.608-2.557-0.996-3.924c-0.368-1.363-0.914-2.796-1.38-4.174         c-0.123-0.353-0.245-0.705-0.366-1.053c-0.147-0.429-0.25-0.853-0.533-1.263c-0.373-0.628-0.738-1.241-1.089-1.83         c-0.654-1.105-1.236-2.131-1.688-3.023c-0.903-1.785-1.279-3.04-0.652-3.339l-5.698-10.703l0.397,0.151         c-3.395-6.97-5.244-9.098-7.089-11.211c-0.654-1.678,0.177-0.636,0.375-0.571c-0.295-0.645-0.573-1.252-0.836-1.829         c-0.276-0.587-0.459-1.038-0.89-1.868c-0.692-1.01-1.309-1.91-1.873-2.733c-1.072-1.542-2.03-2.739-2.973-3.869         c-1.029-1.137-1.88-2.109-3.434-3.448c-0.346-0.35-0.792-0.544-1.213-0.826c-0.43-0.256-0.877-0.522-1.349-0.803         c-0.88-0.449-1.848-0.943-2.935-1.498l-0.317-1.314c-0.619-0.254-1.744-1.028-3.243-2.134         c-0.747-0.555-1.637-1.153-2.583-1.83c-0.503-0.352-1.028-0.719-1.57-1.099c-0.297-0.224-0.865-0.442-1.066-0.567         c-0.28-0.143-0.563-0.289-0.852-0.436c-4.604-2.347-10.209-5.065-15.502-6.827c0.142-0.049,0.422-0.117,1.28,0.123         c-1.482-0.51-3.006-1.117-4.548-1.786c-0.293-0.103-1.013-0.497-1.547-0.632c-0.494-0.112-0.991-0.226-1.49-0.339         c-0.888-0.215-1.782-0.433-2.68-0.65c-1.785-0.411-3.55-0.701-5.308-1.072c-1.757-0.334-3.506-0.537-5.188-0.788         c-0.831-0.138-1.69-0.188-2.528-0.235c-0.837-0.041-1.652-0.081-2.441-0.12c-0.378-0.002-0.814-0.054-1.356-0.013         c-0.412,0.049-0.817,0.097-1.213,0.144c-0.675,0.085-1.318,0.18-1.929,0.287c-2.439,0.426-4.329,1.04-5.372,1.987l-8.1,1.747         c10.628-0.966-1.415,1.598,3.008,1.638c-4.146,0.671-10.889,0.256-5.786-0.501l0.82,0.071         c0.421-0.479-0.196-0.662-1.355-0.685c-0.58-0.011-1.296,0.017-2.085,0.068c-0.448,0.036-0.918,0.073-1.399,0.111         c-0.533,0.073-1.086,0.301-1.474,0.396c-3.394,1.008-6.962,2.145-7.006,1.546c-2.522,0.811-5.037,1.619-7.543,2.424         c-1.257,0.394-2.511,0.787-3.763,1.179c-1.217,0.414-2.432,0.826-3.645,1.238l-1.817,0.612         c-0.523,0.127-1.011,0.268-1.534,0.386l-1.651,0.253l-1.709,0.135c-2.297,0.089-4.66-0.092-6.761-0.572         c-0.557-0.084-0.988-0.291-1.485-0.421c-0.217-0.059-0.53-0.172-0.833-0.281l-0.902-0.321         c-1.203-0.428-2.404-0.855-3.602-1.282c-2.398-0.849-4.787-1.694-7.164-2.535c-2.382-0.83-4.754-1.656-7.114-2.479         c-1.183-0.405-2.362-0.809-3.539-1.211l-0.883-0.299c-0.343-0.103-0.776-0.291-1.206-0.375l-2.169-0.259         c0,0,0.524,0.396,1.049,0.791c0.305,0.203,0.74,0.42,0.987,0.574c0.24,0.197,0.384,0.338,0.384,0.339         c0,0-0.128-0.044-0.352-0.12c-0.236-0.048-0.627-0.083-1.033-0.137c-0.638-0.081-1.489-0.188-2.339-0.295         c-1.702-0.215-3.403-0.43-3.403-0.43c-1.753-0.514-2.282-1.311,2.573-0.697c-2.47-1.044-8.225-0.311-8.396-0.039         c-9.457-1.631,3.896-1.114,0.979-1.481l-3.976-0.358l0.876,0.257c-1.638,0.085-2.544,0.263-3.771,0.327         c-0.613,0.032-1.307,0.036-2.211-0.015c-0.452-0.025-0.958-0.064-1.532-0.12c-0.287-0.03-0.591-0.062-0.916-0.096         c-0.244-0.019-0.902-0.136-1.281-0.098c-3.985-0.188-2.046-0.78-3.622-0.799c0.016-0.075-0.555-0.181-2.365,0.104         c0,0-0.562,0.042-1.404,0.105c-0.841,0.072-1.968,0.129-3.088,0.255c-2.235,0.294-4.471,0.588-4.471,0.588l3.706,0.526         c-3.833,0.969-8.308,1.442-4.031,1.736c-0.779-0.069-1.884-0.021-3.232,0.121c-0.354,0.039-0.645,0.067-1.109,0.135         c-0.217,0.038-0.437,0.045-0.666,0.114c-0.231,0.086-0.466,0.175-0.706,0.265c-0.361,0.133-0.734,0.27-1.117,0.41         c-0.17,0.063-0.343,0.127-0.519,0.192l-0.096,0.009c-0.515,0.056-1.065,0.251-1.589,0.479         c-1.049,0.456-1.997,1.04-2.354,0.886c-0.412,1.02-1.13,1.322-2.05,1.627c0.308,0.104,0.916,1.126,0.097,1.33         c-0.707-2.354-1.822-0.353-3.146-1.687c1.02,0.822-2.048,1.219-0.518,2.349c-0.715,0.1-0.407-0.818-1.121-1.13         c-1.131,1.532-3.581,0.909-5.321,2.026c0.1,0.306,0.611,0.615,0.402,1.228l-1.633-1.028c-0.306,0.306,0.406,1.84-0.717,1.122         c0.204,0.204,0.51,0.513,0.304,0.716c-0.268,0.012-0.53,0.04-0.787,0.081l-0.381,0.072l-0.51,0.151         c-0.331,0.103-0.642,0.305-0.879,0.42c-0.23,0.123-0.456,0.254-0.679,0.393c-0.89,0.552-1.724,1.207-2.579,1.825         c-1.657,1.296-3.412,2.372-5.957,2.396c0.82,0.183,0.545,0.451,0.206,0.718c0.314-0.04,0.449,0.65,0.744,0.974l-2.122,0.02         c0.492,1.094-1.6,1.308-1.017,2.314l0.345-0.532c0.109,0.776,0.821,1.177,1.576,1.609c0.762,0.426,1.557,0.885,2.031,1.621         c-0.249-1.713,3.02,0.674,2.802-1.876c0.435,0.129,0.121,0.602,0.475,0.847c-0.162-0.805,0.08-1.16,0.882-1.286l0.035,0.199         c1.621-1.271,2.755-1.224,4.951-1.98l-0.602-0.642c0.479-0.161,0.709,0.014,1.018,0.077c-0.208-1.409-1.21,0.664-1.539-0.829         c0.746,0.569,1.484,0.12,2.218-0.292c0.867-0.517,0.996-0.467,1.79,0.272c0.717-0.306-0.612-0.821,0.105-1.125l0.407,0.41         l-0.101-0.716c0.514-0.101,1.022,0.412,1.224,0.822c-0.135,0-0.271,0.259-0.376,0.349c0.862,0.314,1.621-0.952,1.913-0.855         l-0.819-0.002c1.742-1.32,4.403-1.721,5.84-3.554l-0.307-0.31c1.131-1.322,1.33-0.099,2.766-1.112l-0.019,0.114         c0.152-0.51,0.491-0.883,0.94-1.031c-0.206,0.611,1.123,0.517,0.814,1.229c1.23-1.426,0.513-0.92,0.931-2.758l0.509,0.513         c0.104-0.712,0.003-1.021,0.72-1.527c-0.412,0.814,0.917,0.719,0.503,1.738c1.124,0.311,1.586-0.301,1.972-0.785         c0.192-0.242,0.366-0.452,0.593-0.5c0.114-0.023,0.24-0.006,0.39,0.068c0.037,0.019,0.076,0.041,0.116,0.067l0.062,0.042         l0.271-0.043c0.365-0.055,0.734-0.092,1.111-0.111c0.337-0.276,0.3-0.376,0.383-0.519c0.045-0.134,0.109-0.229,0.118-0.312         c0.037-0.156-0.155-0.278-0.356-0.279c-0.055-0.002-0.115,0-0.182,0.007l-0.104,0.013c-0.057,0.016-0.116,0.032-0.177,0.048         c-0.244,0.069-0.517,0.158-0.812,0.26c-0.147,0.053-0.299,0.108-0.457,0.165l-0.118,0.044l-0.02,0.001l-0.04,0.003         c-0.054,0.006-0.108,0.017-0.162,0.03c-0.43,0.107-0.827,0.4-0.695,0.123c-0.301-0.2-0.286-0.589-0.121-0.934         c0.083-0.173,0.203-0.334,0.339-0.457c0.034-0.031,0.069-0.059,0.105-0.084c0.245-0.114,0.486-0.227,0.722-0.337         c0.258-0.112,0.509-0.223,0.751-0.328c0.215-0.086,0.398-0.171,0.596-0.229c0.213-0.042,0.423-0.076,0.634-0.101         c0.232-0.029,0.464-0.051,0.696-0.065c0.464-0.029,0.93-0.032,1.41-0.019c0.958,0.018,1.969,0.099,3.188,0.248         c1.208,0.134,2.577,0.194,4.235,0.222c0.832,0.036,1.733,0.046,2.722,0.02c0.989-0.028,2.071-0.111,3.213-0.106         c-0.924,0.024-0.962,0.116-1.902,0.204c0.899,0.015,1.726,0.083,2.59,0.019c0.429-0.022,0.859-0.056,1.295-0.094         c0.439-0.03,0.898-0.102,1.101-0.1c0.035-0.005,0.158,0.001,0.284,0.009l0.363,0.02c0.242,0.016,0.486,0.033,0.733,0.049         c0.493,0.037,0.993,0.084,1.501,0.148c1.019,0.128,2.073,0.325,3.175,0.646c2.65-0.832,5.832,0.736,6.723-0.611l-9.025-0.703         c5.138,0.212,10.108-0.913,18.408,0.865c-0.688,0.214-3.228,0.306-4.969,0.321c1.203,0.352,2.393,0.418,3.593,0.487         c0.601,0.034,1.204,0.069,1.813,0.141c0.266,0.041,0.41,0.038,0.639,0.128c0.221,0.098,0.406,0.197,0.725,0.36         c-0.13,0.146-0.443,0.191-0.679,0.228c-0.131,0.016-0.291,0-0.42,0.039c-0.135,0.025-0.253,0.046-0.592,0.036         c-1.156-0.018-2.673-0.164-4.336-0.337c-3.326-0.347-7.239-0.805-10.031-0.573c2.565,0.908,10.445,0.151,7.523,1.386         c2.059-0.762,4.549-0.413,7.169,0.011c0.287,0.021,0.687,0.252,1.458,0.512c0.685,0.25,1.391,0.494,2.123,0.717         c1.463,0.447,3.025,0.811,4.714,0.97l-0.673,0.687c1.037,0.199,3.226,0.493,5.056,1.12l-3.66-0.029         c5.389,0.774,9.559,4.036,14.602,5.153c-10.234-3.35-1.962-1.743-6.093-3.771c3.252,0.77,5.292,1.439,6.738,2.076         c0.326,0.155,0.795,0.328,1.146,0.488c0.372,0.162,0.714,0.322,1.041,0.482c0.637,0.274,1.196,0.526,1.787,0.801         c1.167,0.499,2.415,1.016,4.467,1.297c0.514,0.089,1.078,0.126,1.705,0.148c0.628,0.017,1.31,0.062,2.084-0.008         c0.774-0.063,1.598-0.087,2.559-0.283c0.474-0.089,0.969-0.183,1.487-0.281c0.543-0.15,1.111-0.318,1.699-0.501         c-1.299,0.483-3.655,0.836-5.119,0.745c-1.487-0.049-2.178-0.244-0.38-0.62c0.411-0.019,0.839-0.038,1.276-0.058         c0.449-0.049,0.908-0.099,1.372-0.15c0.911-0.067,1.921-0.296,2.879-0.488l0.358-0.073l0.279-0.065         c0.185-0.042,0.366-0.083,0.544-0.124c0.358-0.075,0.702-0.147,1.025-0.215c0.65-0.127,1.228-0.22,1.687-0.263         c9.366-3.375-1.726-0.385,2.098-2.24c3.536-0.036,4.433-1.879,8.436-3.526l0.307,0.824c5.403-1.449,5.968-2.113,6.412-2.722         c0.222-0.304,0.412-0.594,1.16-0.962c0.187-0.092,0.409-0.189,0.675-0.292c0.134-0.049,0.277-0.102,0.434-0.159         c0.116-0.04,0.241-0.083,0.376-0.128c0.134-0.054,0.26-0.059,0.397-0.07c0.186-0.014,0.384-0.03,0.596-0.046         c0.501-0.03,1.065-0.064,1.703-0.103c0,0-1.027,0.425-2.054,0.849c-0.265,0.163-0.467,0.397-0.755,0.614         c-0.347,0.232-0.577,0.387-0.577,0.387s0.301-0.118,0.751-0.294c0.122-0.048,0.3-0.147,0.431-0.176         c0.068-0.017,0.14-0.035,0.211-0.053l0.474-0.084c1.312-0.23,2.622-0.46,2.622-0.46l-0.976,1.117         c5.659-1.396,7.469-1.412,13.127-1.781c-1.379-0.464,0.554-1.667,5.531-2.269c1.729,0.064,1.276,0.326,1.273,0.455         c-0.001,0.032,0.026,0.056,0.123,0.067c0.081,0.012,0.318,0.001,0.416,0.001c0.256,0.001,1.308,0.04,2.944,0.036         c-0.756,0.26-1.551,0.552-2.477,0.67c-0.181,0.03-0.389,0.046-0.464,0.077c-0.159,0.026-0.54,0.069-0.826,0.081         c-0.625,0.031-1.323,0.002-2.114-0.11c-0.282,0.321-1.51,0.729-1.801,1.047c0.932,0.043,1.973,0.008,3.051-0.075         c0.539-0.042,1.087-0.095,1.636-0.156l0.191-0.021c0.014-0.012,0.152,0,0.226-0.001l0.684,0.004         c0.987,0.002,1.945-0.018,2.804-0.038c0.861-0.016,1.667,0.067,2.268,0.106c-0.932-0.114-2.052-0.279-2.589-0.384         c0,0,0.148-0.017,0.408-0.045c0.255-0.04,0.641-0.048,1.102-0.063c0.927-0.033,2.163-0.077,3.398-0.121         c1.246-0.076,2.479,0.024,3.415,0.021c0.937,0.02,1.561,0.033,1.561,0.033c1.489,0.546,0.216,0.632-1.023,0.715         c0.985,0.104,1.864,0.062,2.781,0.164c0.467,0.038,0.964,0.083,1.521,0.15c0.527,0.061,1.273,0.179,1.667,0.242         c-0.179,0.145-0.312,0.3-0.45,0.45c-0.076,0.073-0.124,0.151-0.232,0.214c-0.113,0.062-0.241,0.118-0.393,0.167         c-0.613,0.203-1.569,0.243-3.54,0.032c0,0,0.144,0.01,0.395,0.027c0.24,0.03,0.583,0.073,0.995,0.124         c0.414,0.05,0.897,0.109,1.415,0.172c0.26,0.031,0.528,0.063,0.801,0.096l0.206,0.025l0.117,0.005l0.235,0.01         c0.078,0.004,0.095,0.01,0.146,0.016c0.054,0.01,0.045-0.007,0.232,0.062c0.286,0.1,0.567,0.198,0.84,0.292         c0.545,0.19,1.054,0.367,1.489,0.52c0.872,0.304,1.453,0.506,1.453,0.506c0.475,0.548,4.265,2.814,2.992,2.541         c2.405,1.291,5.598,2.323,8.987,3.459c0.846,0.289,1.704,0.582,2.569,0.878c0.71,0.256,1.425,0.515,2.142,0.774         c0.058,0.023,0.304,0.166,0.483,0.267l0.57,0.33l1.126,0.683c0.743,0.457,1.466,0.952,2.157,1.506         c0.379,0.085,1.062,0.379,2.362,1.121c0.686,0.467,1.312,0.967,1.948,1.454l0.942,0.735c0.289,0.234,0.681,0.516,0.869,0.706         l0.689,0.61l0.349,0.297c0.106,0.103,0.169,0.224,0.257,0.332c0.165,0.223,0.334,0.439,0.508,0.651l0.693,0.933         c0.947,1.232,1.939,2.593,3.043,3.943c0.55,0.679,1.109,1.383,1.714,2.083l0.458,0.529l0.234,0.265         c0.08,0.09,0.084,0.077,0.131,0.121c0.083,0.064,0.13,0.116,0.192,0.174l0.401,0.588l0.957,4.639         c3.148,5.459-1.402-6.225,3.838,2.865c3.771,6.405,0.303,2.961,1.182,5.438c2.268,2.983,6.379,8.08,8.583,14.614         C382.426,229.62,381.781,227.961,380.729,226.131z M387.803,298.714c0.132-1.491,0.32-4.51,0.908-5.445         c0.379,0.911,0.388,1.67,0.144,2.503C388.633,296.604,388.229,297.505,387.803,298.714z M337.96,402.146         c0.637-0.942,1.839-2.091,3.397-3.249c-0.447,0.53-0.946,1.076-1.501,1.629C339.312,401.086,338.69,401.636,337.96,402.146z          M110.946,268.688c0.015,0.064,0.026,0.11,0.045,0.162C110.693,272.252,110.812,271.046,110.946,268.688z M111.446,261.259         c-0.091-0.788-0.213-0.753-0.349-0.438c0.198,0.57,0.143,2.3,0.02,4.278C111.364,264.549,111.55,263.575,111.446,261.259z          M194.668,167.007l1.45,0.197c-1.626,0.142-2.183,0.215-2.251,0.167C193.801,167.325,194.227,167.151,194.668,167.007z" style="fill:#202020;"/><path d="M345.936,391.614c0.387-0.226,0.587-0.208,0.776-0.177         C346.981,390.893,346.858,390.773,345.936,391.614z" style="fill:#202020;"/><path d="M354.508,189.549l-0.185-0.135c-0.134-0.026-0.219-0.019-0.279,0.004L354.508,189.549z" style="fill:#202020;"/><path d="M146.757,362.569c0.572,1.322,0.812,2.103,0.919,2.648         C147.902,365.185,147.751,364.525,146.757,362.569z" style="fill:#202020;"/><path d="M119.764,223.875l-1.847,4.071c0.953-1.938,1.477-2.535,2.102-3.439         C119.79,224.501,119.136,225.122,119.764,223.875z" style="fill:#202020;"/><path d="M132.551,210.965c-0.051-0.135,0.083-0.187,0.03-0.32l-0.374-0.164         C132.042,210.856,132.204,211.261,132.551,210.965z" style="fill:#202020;"/><path d="M124.252,221.544c0.819,0.025,1.882-2.577,3.195-5.417c-0.083,0.167-0.16,0.329-0.254,0.491         C126.698,215.325,125.472,218.441,124.252,221.544z" style="fill:#202020;"/><path d="M127.758,215.471c0.21-0.433,0.424-0.871,0.636-1.307l0.332-0.643l0.161-0.298l0.034-0.042         c-0.086-0.06-0.138-0.082-0.169-0.079c-0.016,0.002-0.026,0.01-0.032,0.024c-0.034,0.077-0.074,0.168-0.12,0.272         C128.383,213.911,128.105,214.684,127.758,215.471z" style="fill:#202020;"/><path d="M111.861,252.306c0.363-1.422-0.827-1.032-0.43-1.81         C110.693,248.75,111.4,260.286,111.861,252.306z" style="fill:#202020;"/><polygon points="127.576,220.413 126.251,220.989 126.101,222.883        " style="fill:#202020;"/><path d="M117.246,242.833c0,0,0.378-1.198,0.757-2.396c0.19-0.598,0.381-1.195,0.523-1.644         c0.153-0.445,0.255-0.742,0.255-0.742c-0.169,0.031-0.075-0.604,0.082-1.375c-0.471,1.475-0.934,3.029-1.255,4.207         C117.283,242.06,117.093,242.856,117.246,242.833z" style="fill:#202020;"/><path d="M118.863,236.677c0.242-0.785,0.449-1.487,0.652-2.251c0.32-0.723,0.567-1.251,0.7-1.684         c-0.097,0.194-0.221,0.444-0.363,0.728c-0.12,0.279-0.362,0.653-0.466,1.036C119.17,235.317,119,236.02,118.863,236.677z" style="fill:#202020;"/><polygon points="124.684,226.605 123.837,227.83 122.158,230.934        " style="fill:#202020;"/><path d="M117.196,296.459l1.473,5.27c0.429,0.476,0.285-1.014-0.29-2.968         C117.875,297.533,117.305,295.582,117.196,296.459z" style="fill:#202020;"/><path d="M117.241,279.822c-0.002,1.464-0.192,1.585-0.385,2.437l1.144,0.033L117.241,279.822z" style="fill:#202020;"/><path d="M119.771,295.334c0.429,0.469,2.636,7.49,1.035,0.807         C120.274,295.678,119.25,290.396,119.771,295.334z" style="fill:#202020;"/><polygon points="148.046,371.459 147.373,370.246 145.838,371.305        " style="fill:#202020;"/><path d="M200.513,412.43c-6.327-1.383-1.685,0.907-7.38-0.494c-1.564,0.213,4.655,1.145,3.061,1.292         C200.119,413.34,202.107,413.897,200.513,412.43z" style="fill:#202020;"/><path d="M196.194,413.228c-0.629-0.019-1.297-0.027-2.01-0.012         C195.318,413.267,195.857,413.257,196.194,413.228z" style="fill:#202020;"/><polygon points="144.195,186.184 143.355,186.348 144.131,186.533        " style="fill:#202020;"/><path d="M143.965,188.108l-0.917-0.779l0.375,1.064C143.514,188.255,143.693,187.983,143.965,188.108z         " style="fill:#202020;"/><path d="M382.935,309.314l0.208,0.371c0.439-0.547,0.677-1.479,1.153-3.343L382.935,309.314z" style="fill:#202020;"/><polygon points="389.228,255.618 389.313,256.675 390.174,254.607        " style="fill:#202020;"/><path d="M372.054,214.335c0.847,1.735,2.1,3.641,2.95,5.384         C372.9,216.07,372.997,213.26,372.054,214.335z" style="fill:#202020;"/></g></g></g></g><g><g><g><g><path d="M200.246,141.399c-0.125-0.267-0.677,0.265-0.814,0.311         C199.869,141.995,200.397,141.271,200.246,141.399z" style="fill:#202020;"/><polygon points="204.525,144.037 204.233,144.173 205.262,144.195        " style="fill:#202020;"/><path d="M207.338,147.284c0.705-1.168-1.179-1.032-1.335-1.915l0.141-0.288l-1.021,0.42         C205.865,146.1,207.179,146.55,207.338,147.284z" style="fill:#202020;"/><path d="M206.823,150.888c0.271-0.449,0.668,0.071-0.259-0.504c-0.004,0.076-0.017,0.108-0.025,0.158         C206.609,150.606,206.698,150.702,206.823,150.888z" style="fill:#202020;"/><path d="M206.539,150.542C206.193,150.23,206.434,151.05,206.539,150.542L206.539,150.542z" style="fill:#202020;"/><path d="M208.218,151.893l-0.747-0.131c-0.129,0.297,0.198,0.739-0.099,0.742         C207.984,152.789,208.108,152.488,208.218,151.893z" style="fill:#202020;"/><path d="M209.299,151.653l-0.354-0.094C208.893,151.685,208.919,151.775,209.299,151.653z" style="fill:#202020;"/><path d="M208.195,151.354l0.75,0.205c0.091-0.209,0.39-0.506-0.315-0.121         C208.946,151.211,208.588,151.372,208.195,151.354z" style="fill:#202020;"/><path d="M208.08,150.945c-0.029-0.44-0.198-0.877,0.545-0.747         C207.704,149.486,207.148,150.227,208.08,150.945z" style="fill:#202020;"/><path d="M208.482,146.551l-0.007-0.586l-0.576,0.001C208.186,145.967,208.198,146.843,208.482,146.551         z" style="fill:#202020;"/><path d="M210.424,155.101c0.221-0.171,0.362-0.673,0.576-0.957l-0.556-0.092         C210.482,154.35,210.687,154.786,210.424,155.101z" style="fill:#202020;"/><path d="M211,154.144l0.827,0.132C211.425,153.816,211.186,153.9,211,154.144z" style="fill:#202020;"/><polygon points="210.411,150.729 208.942,150.63 210.565,150.872        " style="fill:#202020;"/><polygon points="212.33,156.96 211.61,157.159 212.772,156.93        " style="fill:#202020;"/><path d="M214.435,158.5c-0.355,0.092-0.336,0.367-0.292,0.627c0.053,0.266,0.05,0.468-0.224,0.491         c0.504,0.199,1.009-0.024,1.531-0.184c-0.214,0.002-0.396-0.06-0.548-0.201c-0.077-0.071-0.146-0.161-0.208-0.274         C214.626,158.845,214.607,158.733,214.435,158.5z" style="fill:#202020;"/><path d="M216.25,159.227c-0.221,0.013-0.5,0.109-0.8,0.208         C215.678,159.432,215.931,159.381,216.25,159.227z" style="fill:#202020;"/><path d="M212.577,155.178c-0.076,0.159-0.301,0.548-0.145,0.951l0.332-0.757         C212.707,155.313,212.642,155.246,212.577,155.178z" style="fill:#202020;"/><path d="M212.774,155.347l-0.01,0.024c0.197,0.217,0.334,0.368,0.393,0.432         C213.108,155.746,212.993,155.609,212.774,155.347z" style="fill:#202020;"/><path d="M212.53,155.128c0.017,0.018,0.03,0.032,0.047,0.049         C212.61,155.104,212.616,155.075,212.53,155.128z" style="fill:#202020;"/><path d="M211.103,152.478c0.584-0.023,1.51,0.201,1.404-0.811         C211.93,151.848,211.983,152.434,211.103,152.478z" style="fill:#202020;"/><path d="M212.956,154.191l-0.396-0.622c-0.132,0.157-0.246,0.463-0.539,0.482L212.956,154.191z" style="fill:#202020;"/><polygon points="213.378,154.253 212.956,154.191 213.103,154.423        " style="fill:#202020;"/><path d="M215.633,157.993c0.429-0.133,0.72,0.012,1.06,0.157c-0.253-0.335-0.555-0.617-0.883-0.817         C215.635,157.512,215.261,157.796,215.633,157.993z" style="fill:#202020;"/><path d="M214.065,156.693c0.032,0.011,0.069,0.023,0.099,0.033         C214.161,156.633,214.14,156.583,214.065,156.693z" style="fill:#202020;"/><path d="M219.751,160.04c0.008-0.048,0.017-0.1,0.025-0.15l-0.082,0.107L219.751,160.04z" style="fill:#202020;"/><path d="M215.829,157.174c-0.128-0.255-0.537-0.284-0.885-0.216c0.172,0.06,0.344,0.127,0.514,0.205         c0.153,0.067,0.234,0.1,0.351,0.168C215.888,157.25,215.93,157.191,215.829,157.174z" style="fill:#202020;"/><path d="M217.294,159.443c-0.045-0.219-0.121-0.427-0.21-0.631         C217.083,159.1,217.142,159.587,217.294,159.443z" style="fill:#202020;"/><path d="M214.138,156.998c-0.024-0.005-0.047-0.008-0.07-0.019         C214.072,157.213,214.109,157.135,214.138,156.998z" style="fill:#202020;"/><path d="M214.138,156.998c0.247,0.062,0.554-0.004,0.806-0.04c-0.275-0.102-0.576-0.164-0.78-0.232         C214.168,156.807,214.156,156.91,214.138,156.998z" style="fill:#202020;"/><path d="M223.296,156.359c-0.422,0.586-1.43,0.749-1.594-0.26c-0.842,0.115-1.72,2.36-1.926,3.79         c0.182-0.257,0.334-0.505,1.134-0.513c0.004-0.459-0.795-1.571,0.033-1.827c0.958,0.153,0.491,0.602,0.662,1.155         c0.156-0.959,1.656-0.516,2.182-1.743l-0.913-0.016C222.97,156.763,223.384,156.633,223.296,156.359z" style="fill:#202020;"/><path d="M218.718,159.151l-0.284-0.07c0.204,0.273,0.247,0.638,0.307,1.337         c0.579-0.057,0.801-0.234,0.954-0.422l-1.114-0.804L218.718,159.151z" style="fill:#202020;"/><path d="M217.368,158.429c0.596-0.554,1.34-0.488,1.437-1.425c-0.724-0.382-0.831,0.258-1.425,0.292         c1.224,0.525-0.551,0.173,0.026,1.051c-0.291-0.022-0.51-0.109-0.714-0.197c0.152,0.206,0.285,0.427,0.392,0.663         c0-0.022,0-0.038,0-0.057l-0.007-0.001l0.008-0.01c0.003-0.113,0.018-0.174,0.043-0.092c0.009-0.006,0.024-0.001,0.032,0.001         c0.065-0.088,0.136-0.157,0.206-0.221c0.24,0.337-0.056,0.205-0.206,0.221c-0.024,0.03-0.052,0.056-0.075,0.091l-0.001,0.011         l1.35,0.326C218.253,158.841,217.944,158.677,217.368,158.429z" style="fill:#202020;"/><path d="M214.211,150.96c-0.019,0.078-0.059,0.117-0.096,0.159         C214.244,151.111,214.313,151.086,214.211,150.96z" style="fill:#202020;"/><path d="M214.277,151.677c-0.146,0.012-0.423,0.182-0.596-0.095c-0.034-0.357,0.264-0.268,0.434-0.462         c-0.282,0.02-0.878-0.058-0.711,0.627l0.144-0.011c0.201,0.563,0.037,1.757-0.106,1.771         C213.811,152.884,214.056,152.422,214.277,151.677z" style="fill:#202020;"/><path d="M215.624,155.068c-0.02,0.015,0.356,0.125,0.711,0.231c0.385,0.125,0.609,0.149,0.626,0.16         c0,0-0.03-0.218-0.061-0.436c-0.047-0.229-0.095-0.458-0.095-0.458l-0.196,0.358         C216.049,154.396,215.89,154.882,215.624,155.068z" style="fill:#202020;"/><polygon points="219.654,160.438 219.096,161.067 220.25,160.404        " style="fill:#202020;"/><polygon points="220.922,161.103 220.5,161.688 221.049,161.516        " style="fill:#202020;"/><path d="M220.62,109.916l-0.461-0.045C220.36,109.92,220.503,109.929,220.62,109.916z" style="fill:#202020;"/><path d="M223.154,111.544l0.25-0.263C223.182,111.374,223.058,111.466,223.154,111.544z" style="fill:#202020;"/><path d="M257.855,152.127c0.464-0.777,1.261-1.732,0.509-1.423l-0.699,0.411         C257.925,151.478,257.937,151.813,257.855,152.127z" style="fill:#202020;"/><path d="M243.169,124.496c-0.034,0.092-0.07,0.189-0.105,0.285c0.302-0.026,0.584-0.051,0.843-0.074         C243.683,124.643,243.432,124.571,243.169,124.496z" style="fill:#202020;"/><path d="M240.23,126.011l-0.038-0.908C240.15,125.345,240.158,125.641,240.23,126.011z" style="fill:#202020;"/><path d="M206.2,101.966l-0.836,0.428C206.011,102.791,205.941,102.27,206.2,101.966z" style="fill:#202020;"/><path d="M239.174,168.915c0.508,0.452,0.958,0.701,1.368,0.845         C239.914,169.132,239.535,168.329,239.174,168.915z" style="fill:#202020;"/><path d="M226.041,103.417c-0.292-0.012-0.469,0.067-0.556,0.221         C225.779,103.661,225.985,103.611,226.041,103.417z" style="fill:#202020;"/><path d="M242.36,170.122c-0.105-0.095-0.214-0.15-0.322-0.233c-0.524,0.077-0.969,0.055-1.496-0.128         c0.23,0.232,0.492,0.439,0.783,0.538C241.626,170.389,241.999,170.343,242.36,170.122z" style="fill:#202020;"/><path d="M199.758,121.05c-0.016,0.046-0.013,0.09-0.037,0.136         C199.822,121.147,199.805,121.103,199.758,121.05z" style="fill:#202020;"/><path d="M198.814,136.693c-0.104-0.096-0.204-0.289-0.306-0.465         C198.505,136.341,198.586,136.487,198.814,136.693z" style="fill:#202020;"/><path d="M227.588,165.262C227.19,165.143,227.493,165.316,227.588,165.262L227.588,165.262z" style="fill:#202020;"/><path d="M227.016,161.591c0.131-0.031,0.251-0.107,0.344-0.264         C227.239,161.48,227.125,161.567,227.016,161.591z" style="fill:#202020;"/><path d="M246.931,165.57c0.011,0.001,0.02,0.002,0.033,0.004         C246.855,165.414,246.875,165.445,246.931,165.57z" style="fill:#202020;"/><path d="M227.17,164.685c0.101,0.15,0.23,0.296,0.384,0.427         C227.501,165.021,227.387,164.887,227.17,164.685z" style="fill:#202020;"/><path d="M227.092,165.059c-0.118-0.085-0.209-0.152-0.297-0.215         C226.692,164.942,226.7,165.036,227.092,165.059z" style="fill:#202020;"/><path d="M228.13,165.457c-0.22-0.084-0.406-0.208-0.576-0.345c0.052,0.081,0.064,0.136,0.034,0.15         C227.703,165.303,227.863,165.361,228.13,165.457z" style="fill:#202020;"/><path d="M191.456,98.137c-0.025,0.012-0.04,0.029-0.073,0.042         C191.731,98.49,191.672,98.37,191.456,98.137z" style="fill:#202020;"/><path d="M247.024,144.846c0.013,0.015,0.036,0.018,0.049,0.031c0.003-0.02,0.007-0.045,0.009-0.063         L247.024,144.846z" style="fill:#202020;"/><path d="M246.049,143.68c1.115,0.28,1.1,0.64,1.034,1.133l2.039-1.115L246.049,143.68z" style="fill:#202020;"/><path d="M214.372,106.312l0.463,1.121c-1.625,0.367-2.143-0.428-1.883,0.907         c1.42-2.028,3.385,1.799,4.802-0.228l0.277,0.784c-0.146-0.118-0.247-0.011-0.391-0.128c0.449,1.67,1.738-1.026,2.935,0.129         c0.382,0.459,0.529,0.973,0.046,1.019l1.395,0.146c0.287,0.234-0.016,0.552-0.302,0.319l1.741,0.846l-0.05,0.054         c0.438-0.185,1.282-0.366,1.675-0.423c0.229,0.559-0.347,0.093-0.402,0.421l1.221,0.052c0.032,0.773-1.046,0.836-1.624,0.371         c-0.454,2.622,1.08-0.063,2.146,2.294l-1.021-0.263c-0.187,1.533,0.749,1.515,1.255,2.858         c0.011-0.53-0.776-3.073,0.532-2.987c0.179,0.331,0.498,0.632,1.29,0.538c-0.458,0.75,0.174,0.887,0.848,1.247l-0.657,0.962         c0.877,0.149,1.134-0.39,1.823-0.579c0.077,0.064,0.193,0.168,0.194,0.212c0.012,0.052,0.015,0.109,0.007,0.17         c-0.014,0.124-0.065,0.265-0.141,0.415c-0.157,0.292-0.373,0.683-0.59,0.998c0.146,0.285,0.327-0.048,0.525-0.435         c0.215-0.369,0.375-0.864,0.87-0.517c0.473,1.116,1.336,1.312,2.808,1.802c0.233,0.881-0.618,0.366-0.675,0.811l1.154-0.07         c0.098,0.15-0.153,0.295-0.279,0.369c0.662,0.228,0.903-0.733,1.768-0.199c1.155-0.617-0.156,2.715,1.734,2.704         c-0.086,0.441-0.644,0.327-0.945,0.68c1.716,0.72,1.368,0.688,3.207,1.015l0.066,1.375c0.208-1.188,1.692-0.923,2.976-0.607         c0.167-0.49,0.31-0.916,0.348-1.162c0,0,0.362,0.232,0.725,0.464c0.342,0.255,0.685,0.509,0.685,0.509         c-0.056,0.271-0.478,0.35-1.02,0.4c0.137,0.038,0.271,0.073,0.387,0.092c-0.061,0.717-0.785,0.825-1.533,0.852         c0.101-0.289,0.203-0.583,0.304-0.871c-0.787,0.07-1.659,0.246-2.166,0.693c0.167,0.003,0.38,0.089,0.551,0.223         c-0.21,0.027-0.394,0.076-0.46,0.177c-0.066,0.109,0.222,0.095,0.598,0.136l-0.905,1.003l0.473-0.215l0.313,2.041         c0.446,0.098,0.979,0.262,1.417,0.26c0.469,0.042,0.976,0.11,1.367,0.272c0.411,0.127,0.875,0.505,1.272,0.855         c0.402,0.368,0.766,0.796,1.065,1.313c-1.08-0.271-1.521,0.34-2.608,0.643c0.477-0.479,0.222-0.873-0.167-1.3         c-0.195-0.213-0.423-0.435-0.61-0.68l-0.208-0.281c-0.044-0.072-0.068-0.151-0.065-0.243c-0.012,0.387-0.55,0.466-0.745,0.47         c0,0,0.082,0.036,0.206,0.09c0.146,0.13,0.363,0.371,0.57,0.581c0.418,0.434,0.836,0.868,0.836,0.868         c-0.895,0.226-0.525,0.641-0.724,1.291c1.616-0.944,1.633,1.175,2.425,1.848c-0.568,0.232-1.228,0.216-1.402-0.849         c-0.963,1.532,2.495,0.824,1.722,2.274c-0.09-0.245-0.042-0.407-0.37-0.414c0.7,0.421,0.728,1.973,0.115,1.795l-0.089-0.245         c0.305,1.719,1.544,5.043,3.099,4.833c-0.186,0.075-1.85,0.333-2.179,0.326l5.889,1.417         c-1.351,0.132-4.068,2.065-5.209,0.915c-0.059,0.45-0.119,1.003,0.585,1.695c0.098-0.325,1.63-1.237,1.86-0.906         c-1.103,1.446-0.541,0.934-1.362,2.55c0.148-0.487,2.278-0.655,2.412,0.002c-0.329-0.008-1.95,0.66-2.229,0.491l2.445,0.981         c-0.475-0.287-1.679,0.442-2.122,0.967c0.332-0.283,0.388,1.382,0.712,1.744l0.246-0.812         c0.253,1.868,3.305,0.947,3.733,2.697c-0.503-0.152-2.596,0.32-2.759,0.849c0.523-0.045,1.836,0.298,3.129,0.788         c1.293,0.495,2.565,1.152,3.042,1.995c0,0-0.141,0.116-0.281,0.232c-0.142,0.109-0.283,0.218-0.283,0.218         s0.202,0.413,0.403,0.826c0.199,0.443,0.398,0.886,0.398,0.886c-1.665-1.571-5.147-3.109-6.57-4.159         c-0.396,0.719-0.678,0.263-0.521,1.251c-0.523,0.404-0.902-0.453-0.968-0.735c0,0-0.031,0.581-0.062,1.161         c-0.019,0.29-0.038,0.58-0.052,0.797c-0.004,0.052-0.008,0.099-0.011,0.141l-0.017,0.028         c-0.008,0.016-0.013,0.024-0.013,0.024c1.22-0.152,1.281,0.649,2.316,0.855c0,0-0.346-0.433-0.688-0.733         c-0.086-0.077-0.17-0.148-0.251-0.209c-0.041-0.037-0.077-0.044-0.115-0.099c-0.04-0.065-0.077-0.126-0.112-0.182         c-0.14-0.225-0.233-0.375-0.233-0.375c1.213-0.13,3.584,0.952,3.451,2.506c-0.24,0.113-0.802-0.141-1.353-0.378         c-0.551-0.244-1.091-0.463-1.299-0.503c0.437,0.172,0.866,1.142,0.559,1.088c0-0.02-0.687-0.673-0.687-0.654         c-0.228,0.111,0.194,0.45,0.526,0.858c0.331,0.385,0.57,0.857-0.042,0.706c-0.042,0.074-0.457-0.104-0.767-0.268         c-0.311-0.159-0.519-0.283-0.156,0.082c0.736,0.563,2.209,1.72,3.639,2.885c0.341,0.286,0.677,0.569,1,0.84         c0.263,0.228,0.512,0.454,0.736,0.671c0.447,0.433,0.799,0.834,0.954,1.125c-0.032,0.021-0.167,0.101-0.386,0.202         c-0.057,0.025-0.113,0.053-0.188,0.079c-0.017,0.028-0.12-0.012-0.089,0.058l-0.142-0.015         c-0.193-0.022-0.399-0.049-0.613-0.088c-0.881-0.193-1.826-0.541-2.29-0.861c-0.676-0.469-0.893-1.193-1.158-1.816         c-0.258-0.643-0.618-1.272-1.15-1.743c0.258,0.34,0.341,0.759,0.325,0.894c-0.47-0.289-0.628-1.051-1.037-0.896         c0.646,1.265-1.215-0.121,0.331,1.064c-0.466,0.349-0.791-0.265-1.456-0.227c0.217,0.408,0.263,1.093,0.022,1.713         c-0.225,0.619-0.763,1.175-1.266,1.332c0.054-0.313-0.155-0.735-0.24-0.927c-1.811-0.209-2.776-0.82-4.355-1.072         c-0.099-0.323-0.774-0.885-0.344-1.32c-0.264,0.157-0.562,0.513-1.054,0.415c-0.653-1.279,1.096,0.115,0.698-1.321         c-0.218,0.674-1.436,0.681-2.274,0.875c-0.117,1.174,1.574,0.643,2.335,0.391c-0.163,0.75-0.632,1.439-1.348,1.959         c-0.709,0.522-1.694,0.88-2.655,0.904c-1.505-0.107-0.287-1.145-0.595-1.019c-2.475-1.111-3.118,1.753-4.854-0.105         c-0.478-1.237,0.68-1.825,0.752-2.554c1.212,0.076,1.436,1.229,2.189,1.48l-0.742-0.787c0.461-0.172,1.257-0.111,1.564,0.278         c-0.208-0.514-1.229-0.98-2.417-1.475c-0.593-0.25-1.224-0.513-1.807-0.806c-0.573-0.315-1.094-0.668-1.479-1.059         c-0.462,0.155-1.178,0.209-1.065,0.689l0.651,0.139c0.236,0.968-1.572,0.498-0.96,1.172         c-0.519,0.074-1.099,0.208-1.673,0.207c-0.26,0.005-0.645-0.052-0.975-0.197c-0.166-0.086-0.354-0.202-0.491-0.307         c-0.115-0.092-0.224-0.2-0.325-0.328l0.389-1.071c-0.141,0.296,0.296,0.963,0.902,0.937c-0.187,0.03-0.402-0.141-0.535-0.335         c-0.128-0.191-0.247-0.45-0.382-0.685c-0.271-0.468-0.611-0.837-1.233-0.362l0.327,1.109c-1.039,0.019-2.582,0.46-3.323-0.41         c-0.156,1.198,0.279,0.024,0.262,1.527c0.271-1.717,2.334,1.516,2.301-0.484c-0.055,0.845,0.154,1.16,0.404,1.468         c0.144,0.226,0.813,0.834,1.221,1.658c0.055-0.177,0.003-0.392,0.086-0.473c0.104-0.071,0.273-0.039,0.667,0.235         c0.084-0.08,0.235-0.163,0.328-0.209c0.023,0.021,0.029,0.031,0.048,0.051l-0.03-0.061c0.061-0.033,0.069-0.042-0.012-0.021         c-0.142-0.239-0.229-0.49-0.211-0.706c0.788-0.575,2.149,0.056,2.786-0.141c0.442,0.387-0.381,0.293-0.257,0.778l0.951-0.295         c-0.256,0.795,0.866,1.823-0.554,1.763c0,0,0.273,0.13,0.551,0.244c0.276,0.118,0.553,0.236,0.553,0.236         c0.486,0.683,1.337,1.211,2.02,1.108c0.47,0.373,1.65-0.327,0.968,0.094c0,0,0.483,0.053,0.984,0.082         c0.494,0.034,0.989,0.068,0.989,0.068l-0.049,0.199c0.898,0.345,1.86,0.358,2.942,0.485c0.551,0.06,1.094,0.159,1.624,0.37         c0.548,0.196,1.005,0.567,1.613,1c0.394-0.047,0.792-0.108,1.239-0.109c0.396-0.027,0.838,0.005,1.378,0.167l0.164,0.723         c0.442-0.084,1.026,0.112,1.583,0.26c0.078,0.019,0.118,0.034,0.223,0.052c0.107,0.016,0.212,0.031,0.313,0.046         c0.205,0.025,0.394,0.039,0.571,0.033c0.355-0.01,0.628-0.083,0.753-0.264c0.777,0.949,2.649,1.172,4.371,0.947         c0.43-0.052,0.868-0.104,1.302-0.156c0.433-0.049,0.778-0.194,1.153-0.275c0.752-0.159,1.352-0.388,1.77-0.56l-0.571-0.817         c0.531-0.276,1.112-0.406,1.345-1.072c0.422-0.475,0.516-1.189,0.609-2.018l-0.742-0.446         c-0.129-0.813,0.149-1.501,0.419-2.415c0.271-0.896,0.543-2.025,0.443-3.269c0.324,0.223,0.267,0.856,0.087,1.238         c0.447-0.597,0.561-1.391,0.495-2.195c-0.036-0.403-0.111-0.81-0.216-1.208c-0.099-0.366-0.237-0.872-0.354-1.049         c-0.485-0.981-1.044-1.904-0.485-2.872c-0.169-0.161-0.262-0.506-0.279-0.747c-0.012-0.261,0.027-0.508,0.044-0.754         c0.02,0.059,0.051,0.109,0.09,0.149c-0.01-0.068-0.039-0.167-0.071-0.267c0.025-0.162,0.051-0.328,0.077-0.498         c0.023-0.177,0.078-0.25,0.105-0.384c-0.067,0.117-0.131,0.219-0.175,0.331c-0.032,0.15-0.053,0.288-0.055,0.41         c-0.04-0.116-0.1-0.277-0.15-0.391c-0.044-0.091-0.096-0.188-0.154-0.289c-0.117-0.2-0.263-0.413-0.433-0.616l0.776-0.457         c-0.023-0.034-0.031-0.065-0.058-0.1c0.168-0.553-0.51-0.245-1.064,0.193c-0.21-0.192-0.441-0.356-0.695-0.46         c1.236-0.789-0.833-1.081,0.452-2.033c-0.8-0.097-1.252-2.178-2.807-1.97c0.187-0.075,0.237-0.241,0.327,0.007         c0.008-0.571,0.016-1.142-0.544-1.479l0.996-0.549l-1.782-0.692c0.437-0.889,0.726-1.291,1.756-0.86         c-1.77-1.262-0.889-1.193-2.571-2.212l0.709-0.144c-0.181-0.494-1.351-1.011-0.876-1.49c0.961-1.527-1.535-5.612-1.21-8.87         c-1.854,1.185,0.495-1.621-1.111-1.25c0.427-0.315,0.574-0.801,1.135-0.463c-0.115-0.166-0.201-0.328-0.265-0.487         c-0.071-0.181-0.09-0.258-0.161-0.537c-0.128-0.458-0.148-0.949-0.291-1.303c-0.157-0.337-0.332-0.649-0.59-0.912         c-0.247-0.244-0.52-0.344-0.977-0.423c0.332-0.42,0.822-0.069,0.989-0.365c-0.166-0.062-0.658-0.232-0.494-0.537         c0.165-0.302,0.491-0.008,0.822,0.111c-0.999-1.451-2.391-0.755-3.67-0.067c0.134-1.083-0.17-1.41-1.311-1.327         c0.223-0.499,0.343-1.174,1.083-0.455c-0.275-0.493-1.513-3.227-2.474-2.569c0.129-0.321-0.404-0.691-0.598-0.728         c-0.706-1.061-0.74-1.181-1.618-2.076l0.077,0.386c-1.396,0.521-0.904-0.585-1.681-1.244l0.127-0.072         c-0.742-2.428-0.947-0.446-1.727-2.887l-0.539,0.696c-0.752,0.575-0.898,0.033-1.055-0.725         c-0.078-0.378-0.16-0.812-0.313-1.178c-0.164-0.374-0.455-0.75-0.841-0.871c0.007-0.005,0.023,0.197,0.042,0.39         c0.015,0.192,0.03,0.384,0.03,0.384c-0.265-0.009-0.324-0.278-0.458-0.581c-0.098-0.312-0.212-0.79-0.247-1.251         c-0.022-0.894,0.013-1.881-0.224-2.166c-0.044-0.22,0.344-0.095,0.589-0.085c-0.982-1.911-0.805,0.847-2.112,0.35         c0.11-0.658,1.104-1.162,0.379-1.746c-0.128-0.667-3.331,0.292-3.779-1.377c-0.015,0.55-0.03,1.099-0.76,1.066         c-0.92-0.37-1.298-2.918-2.837-2.109c-0.038-0.176-0.012-0.306,0.046-0.409c-0.838-0.065-2.401-0.732-3.211-0.278         c1.002-2.927-4.718-1.199-3.239-3.554l-2.031-1.083l0.201-0.209c-1.151-0.93-1.943-0.637-2.733-0.341         c-0.189-0.339,0.159-0.43,0.259-0.539c-1.528-1.606-1.772-1.618-4.03-1.388l0.316-0.865c-0.69,0.189-1.891-2.835-4.233-3.049         c0.071-0.076,0.201-0.202,0.41-0.222c-0.683-0.112-1.042-0.362-1.949-1.082c-0.197-0.159-0.424-0.249-0.634-0.384         c-0.217-0.127-0.451-0.264-0.555-0.355c-0.272-0.206-0.541-0.408-0.799-0.603c-1.043-0.753-2.009-1.181-2.98,0.212         c0,0-0.109,0.014-0.274,0.034c-0.179,0.016-0.349,0.059-0.635,0.064c-0.543,0.02-1.087,0.04-1.087,0.04         c1.21,0.57,0.961,0.86,0.591,1.144c-0.383,0.279-0.849,0.564-0.522,0.974c-0.406-0.046-0.833-0.466-1.098-0.872         c-0.259-0.404-0.325-0.785,0.236-0.671l0.142,0.225c0.369-0.759-0.367-1.23-1.186-1.549c-0.809-0.306-1.674-0.553-1.724-1.15         c-1.277-0.27-2.624-0.86-3.775-0.65c-0.607,0.011-1.213,0.021-1.817,0.031c-0.069,0.017-0.169-0.031-0.212,0.038         c-0.084,0.012-0.152,0.051-0.221,0.089c-0.13,0.083-0.244,0.182-0.352,0.28c-0.22,0.196-0.415,0.411-0.607,0.63         c-1.469,1.787-2.418,4.383-2.593,7.166c0,0,0.329-0.065,0.655-0.109c0.322-0.047,0.66-0.071,0.66-0.071         s-0.018,0.104-0.02,0.266c-0.006,0.161-0.015,0.375-0.023,0.589c-0.017,0.432-0.034,0.863-0.034,0.863         c-0.307,0.399-1.047,0.504-0.979-0.868c-0.376,0.27-0.23,0.914,0.058,1.428c0.342,0.535,0.803,0.93,0.949,0.949         c-0.136,1.25-0.545,1.084-0.921,0.577c-0.376-0.493-0.718-1.309-0.689-0.862l0.221,1.209l0.127-0.277         c0.32,0.459,0.625,0.715,0.86,0.975c0.237,0.211,0.386,0.517,0.45,1.081c-0.147,0.757-0.752,0.493-0.757,0.784         c-0.094,0.012-0.122,0.116,0.033,0.442l0.163,1.696l0.924-0.846c0.622,0.653,0.228,1.554,1.253,0.595         c-0.403,0.343-0.563,0.954-0.609,1.561c-0.061,0.522,0.006,1.115,0.111,1.689c0.234,1.143,0.614,2.209,0.391,2.533         c0.907,0.625,1.083,1.395,1.217,2.374c0.157-0.289,1.274-0.698,1.325,0.152c-2.443,0.271-0.681,1.748-2.18,2.872         c0.964-0.9,0.914,2.307,2.251,0.914c-0.001,0.746-0.875,0.285-1.269,0.982c0.362,0.364,0.58,0.788,0.72,1.256         c0.035,0.117,0.065,0.237,0.092,0.36l0.097,0.462c0.034,0.313,0.16,0.644,0.27,0.986c0.28,1.055,0.428,2.025,1.046,2.883         c0.299-0.117,0.579-0.645,1.203-0.472l-0.933,1.689c0.323,0.288,1.813-0.511,1.161,0.651         c0.192-0.215,0.483-0.539,0.697-0.344c0.436,4.273,4.864,6.698,4.107,11.652c0.302-0.773,0.523-0.474,0.736-0.11         c0.007-0.311,0.706-0.355,1.068-0.601l-0.297,2.064c1.213-0.272,0.904,1.587,2.01,1.221l-0.43-0.385         c1.536,0.019,2.231-2.269,3.831-2.97c-1.741-0.01,1.072-2.926-1.496-3.09c0.184-0.421,0.613-0.036,0.902-0.358         c-0.817,0.043-1.14-0.244-1.182-1.062l0.203-0.009c-1.118-1.785-0.873-2.921-1.51-5.243l-0.688,0.548         c-0.128-0.503,0.064-0.722,0.148-1.031c-1.428,0.079,0.583,1.3-0.942,1.485c1.255-1.397-1.604-3.192-0.036-4.504         c-0.346-0.699-0.785,0.658-1.129-0.041l0.386-0.43l-0.708,0.142c-0.13-0.507,0.353-1.044,0.75-1.27         c0.008,0.135,0.274,0.255,0.37,0.356c0.264-0.879-1.044-1.564-0.963-1.861l0.045,0.818c-0.708-0.828-1.207-1.915-1.752-2.93         c-0.14-0.196-0.228-0.486-0.5-1.002c-0.24-0.464-0.56-0.858-0.943-1.276l-0.353,0.256c-1.112-1.269,0.111-1.282-0.636-2.808         l0.107,0.037c-0.47-0.23-0.772-0.623-0.833-1.083c0.561,0.302,0.719-0.989,1.359-0.569c-1.161-1.429-0.815-0.645-2.523-1.399         l0.606-0.394c-0.673-0.24-0.995-0.203-1.342-1.001c0.71,0.563,0.895-0.739,1.805-0.135c1.068-2.038-1.967-2.237-0.021-3.543         c-0.507-0.17-0.802-0.125-0.967,0.034c-0.166,0.153-0.194,0.456-0.196,0.649c0.004,0.435,0.198,0.88-0.041,0.694         c-0.264,0.246-0.638,0.147-0.936-0.088c-0.298-0.235-0.515-0.583-0.498-0.999c-0.101-0.736,2.118-1.651,1.805-3.414         c0.021,0.178,0.161,0.168,0.182,0.346c0.182-0.369-0.03-0.669-0.209-0.996c-0.092-0.165-0.169-0.332-0.178-0.511         c-0.005-0.09,0.004-0.185,0.037-0.285c0.031-0.112,0.087-0.204,0.179-0.244c-0.575-0.05-0.58-0.216-0.618-0.335         c-0.038-0.125-0.112-0.222-0.851-0.321c0,0,0.118,0.271,0.235,0.542c0.059,0.137,0.114,0.241,0.161,0.363         c0.05,0.147,0.083,0.245,0.083,0.245c-0.06-0.1-0.144-0.228-0.234-0.299c-0.098-0.068-0.198-0.138-0.301-0.209         c-0.218-0.149-0.462-0.326-0.674-0.541c-0.439-0.412-0.668-1.045-0.286-1.554c0.306,0.2,0.718,0.651,0.947,0.9         c0.427-0.193-0.334-0.681,0.126-0.852c0.733,0.334,0.831,0.625,0.885,0.96c0.042,0.33,0.095,0.739,0.672,0.934         c0.292-0.117,0.007-0.293-0.159-0.475c-0.159-0.185-0.184-0.29,0.62-0.057c-1.024-0.297-0.975-0.576-0.861-0.772         c0.128-0.228,0.323-0.332-0.408-1.102l0.874,0.548c-0.131-0.154-0.515-0.611-0.46-0.785         c-0.008,0.029,1.078,1.058,1.082,1.027c-0.457-0.479-0.208-0.566,0.086-0.496c0.297,0.052,0.624,0.256,0.429-0.139         c-0.079,0.288-0.33,0.099-0.659-0.213c-0.328-0.306-0.709-0.791-1.07-0.845c-0.381-1.196,0.263-0.899,0.9-0.292         c0.325,0.292,0.663,0.63,0.923,0.845c0.263,0.183,0.498,0.449,0.604,0.321c-0.011,0.068-0.185-0.104-0.402-0.356         c-0.213-0.251-0.472-0.584-0.504-0.819c0.352,0.25,0.812,0.691,1.125,1.253c0.193-0.082,0.105-0.336-0.078-0.675         c-0.176-0.329-0.485-0.726-0.429-1.023c0.378,0.647,0.386,0.565,0.403,0.263c0.008-0.296,0.011-0.778,0.202-0.893         l0.189,0.998c0.942,0.921,0.095-1.921,1.197-0.81c0,0-0.157,0.267-0.278,0.547c-0.124,0.28-0.211,0.575-0.211,0.575         c-0.013-0.008,0.452-0.175,0.464-0.169c0,0-0.058,0.245-0.115,0.49c-0.051,0.247-0.102,0.494-0.102,0.494         c0.228-0.311,0.42-0.386,0.56-0.345c0.036,0.01,0.069,0.029,0.101,0.053l0.054,0.043l0.125,0.079         c0.167,0.117,0.355,0.248,0.581,0.405c-0.021-0.667,0.676-1.449,1.572-1.149c0.424,0.711-0.626,0.659,0.672,1.002         c-0.474,0.411-1.021,0.945-1.288-0.015c-0.154,0.249-0.469,0.416-0.623,0.66c0.442,0.801,1.582,0.726,2.038,0.886         c-0.163-0.095-0.355-0.216-0.418-0.373c0,0,0.56-0.119,1.119-0.237c0.646-0.087,0.89-0.321,0.915-0.313         c0.013,0.356-0.229,0.549-0.42,0.755c0.092-0.011,0.224-0.113,0.344-0.173c0.063-0.033,0.129-0.063,0.198-0.079         c0.083-0.007,0.102-0.042,0.263,0.036c-0.515,0.522-0.886,1.15-1.201,1.363c0,0,0.047-0.032,0.116-0.08         c0.036-0.021,0.078-0.046,0.123-0.073c0.054-0.021,0.066-0.072,0.223-0.033c0.5,0.077,0.999,0.153,0.999,0.153         c-0.058,0.329,0.362,1.227,0.019,1.324c0.655,0.899,2.879,0.154,3.75,1.345c0.133-0.08,0.324-0.118,0.625-0.052         c1.007,0.814,1.513,2.158,3.323,2.128l0.061,1.542c1.167,0.381-0.145-1.986,1.796-1.35c1.41,0.393-0.129,1.204,0.103,1.766         c0.934-0.18,2.658-0.656,3.207,0.91C214.946,106.779,214.761,106.441,214.372,106.312z M227.17,113.576         c-0.339,0.006-1.122,0.19-1.026-0.359C226.951,112.532,226.91,113.074,227.17,113.576z M242.872,127.213         c-0.354-0.02-0.396-0.359-0.304-0.842C242.764,126.552,242.893,126.82,242.872,127.213z M232,166.34         c0.017-0.008,0.029-0.015,0.045-0.028C232.537,166.872,232.367,166.661,232,166.34z M230.864,165.486         c-0.175,0.063-0.212,0.18-0.205,0.314c0.174-0.171,0.466-0.073,0.77,0.113C231.423,165.665,231.319,165.454,230.864,165.486z          M186.044,102.352l0.184-0.297C186.573,102.606,186.321,102.476,186.044,102.352z" style="fill:#202020;"/><path d="M240.575,125.84c0.076-0.146,0.198-0.257,0.323-0.366         C240.711,125.471,240.57,125.567,240.575,125.84z" style="fill:#202020;"/><path d="M206.354,101.887c-0.009-0.014-0.023-0.02-0.032-0.032c-0.049,0.032-0.088,0.07-0.122,0.111         L206.354,101.887z" style="fill:#202020;"/><path d="M249.639,162.16c0.223,0.128,0.427,0.292,0.613,0.458         C250.09,162.399,249.881,162.218,249.639,162.16z" style="fill:#202020;"/><path d="M223.25,163.405l0.84,0.249c-0.371-0.177-0.395-0.417-0.498-0.645         C223.501,163.194,223.483,163.531,223.25,163.405z" style="fill:#202020;"/><path d="M220.753,155.488c-0.138,0.041-0.18-0.097-0.317-0.053l-0.191,0.36         C220.607,155.987,221.022,155.857,220.753,155.488z" style="fill:#202020;"/><path d="M224.113,160.511c0.331-0.665-0.252-0.729-0.829-0.923c0.032,0.016,0.063,0.029,0.089,0.055         C222.683,160.432,223.399,160.471,224.113,160.511z" style="fill:#202020;"/><path d="M223.154,159.537c-0.167-0.063-0.356-0.156-0.462-0.263         C222.414,159.59,222.813,159.45,223.154,159.537z" style="fill:#202020;"/><path d="M229.066,165.253c-0.194-0.293-0.544,0.792-0.578,0.448         C227.816,166.433,230.739,165.452,229.066,165.253z" style="fill:#202020;"/><polygon points="224.98,158.187 224.683,159.075 225.351,158.622        " style="fill:#202020;"/><path d="M228.764,161.097l-0.771-0.617c-0.053,0.144-0.209,0.173-0.386,0.169         C228.184,160.938,228.661,161.347,228.764,161.097z" style="fill:#202020;"/><path d="M227.607,160.649c-0.283-0.178-0.562-0.338-0.775-0.291         C226.964,160.425,227.32,160.622,227.607,160.649z" style="fill:#202020;"/><polygon points="226.226,158.632 226.364,158.94 226.898,159.348        " style="fill:#202020;"/><path d="M238.249,165l1.066,0.086c0.191-0.265-0.019-0.539-0.421-0.543         C238.594,164.671,238.19,164.662,238.249,165z" style="fill:#202020;"/><path d="M236.129,161.629c0.191,0.276,0.137,0.479,0.181,0.809l0.416-1.052L236.129,161.629z" style="fill:#202020;"/><path d="M238.995,162.338c0.196-0.265,1.643-0.392,0.429-0.73         C239.236,161.873,238.202,161.797,238.995,162.338z" style="fill:#202020;"/><path d="M253.332,165.266c0,0.005-0.231,0.028-0.231,0.028l1.431,1.557c0,0-0.271-0.37-0.541-0.74         c-0.152-0.199-0.305-0.397-0.419-0.546C253.428,165.385,253.332,165.266,253.332,165.266z" style="fill:#202020;"/><path d="M248.55,154.018c-0.032,0.65,0.263,0.635,0.54,0.61c0.139-0.012,0.272-0.027,0.359,0.037         c0.043,0.032,0.075,0.084,0.089,0.167c0.021,0.104,0.003,0.167-0.052,0.226c0.222-0.027,0.329-0.064,0.366-0.302         c0.035-0.247,0.062-0.489,0.287-0.405C249.479,153.782,249.615,153.334,248.55,154.018z" style="fill:#202020;"/><path d="M250.139,154.351c0.104,0.092,0.227,0.185,0.38,0.277         C250.346,154.458,250.231,154.388,250.139,154.351z" style="fill:#202020;"/><polygon points="198.949,139.14 198.883,139.86 199.258,139.225        " style="fill:#202020;"/><path d="M200.707,139.558l-0.986,0.667l1.119-0.16C200.73,139.965,200.518,139.772,200.707,139.558z" style="fill:#202020;"/><path d="M227.775,116.75l0.201-0.21c0.058-0.325-0.086-0.442-0.375-0.677L227.775,116.75z" style="fill:#202020;"/><polygon points="219.168,110.377 219.312,110.494 219.583,109.405        " style="fill:#202020;"/><path d="M210.836,106.816c0.288,0.23,0.778,0.254,1.067,0.486         C211.124,107.047,211.454,105.632,210.836,106.816z" style="fill:#202020;"/></g></g></g></g></g></g></g><g id="Layer_1"/></svg>