<?xml version="1.0" ?><!DOCTYPE svg  PUBLIC '-//W3C//DTD SVG 1.1//EN'  'http://www.w3.org/Graphics/SVG/1.1/DTD/svg11.dtd'><svg enable-background="new 0 0 128 128" id="Layer_1" version="1.1" viewBox="0 0 128 128" xml:space="preserve" xmlns="http://www.w3.org/2000/svg" xmlns:xlink="http://www.w3.org/1999/xlink"><g><g><g><path d="M95.5,88h-63c-2.71,0-5-2.404-5-5.25l-1.709-15.487l0.994-0.109l1.712,15.542C28.5,85.014,30.369,87,32.5,87h63     c2.217,0,3.776-2.188,4.003-4.304l1.715-15.573l0.994,0.109l-1.715,15.572C100.224,85.357,98.279,88,95.5,88z"/></g></g><g><g><path d="M98.615,69h-69.23c-2.73,0-4.967-2.294-5.44-5.578l-0.633-3.952l0.988-0.158l0.634,3.96     C25.262,65.553,26.794,68,29.385,68h69.23c2.576,0,4.113-2.448,4.451-4.723l0.576-4.144l0.99,0.139l-0.577,4.147     C103.656,66.109,101.784,69,98.615,69z"/></g></g><g><g><path d="M99,64H29c-1.889,0-3.94-1.062-4.988-2.584c-0.729-1.058-0.898-2.245-0.479-3.344l6.441-20.149     C30.874,34.617,32.403,33,34.646,33h58.709c2.206,0,3.912,1.807,4.68,4.957l6.442,20.141c0.355,1.155,0.111,2.385-0.687,3.466     C102.714,63.021,100.789,64,99,64z M34.646,34c-1.752,0-2.931,1.337-3.712,4.206l-6.457,20.196     c-0.393,1.029-0.021,1.896,0.358,2.446C25.693,62.095,27.445,63,29,63h70c1.464,0,3.103-0.835,3.985-2.03     c0.428-0.58,0.868-1.496,0.537-2.572l-6.45-20.17C96.756,36.933,95.779,34,93.354,34H34.646z"/></g></g><g><g><path d="M68.884,59h-9.768l0.592-9h-8.856l1.527-7h7.791l0.365-5h6.93l0.365,5h7.791l1.527,7h-8.856L68.884,59z M60.185,58h7.631     l-0.592-9h8.683l-1.09-5H66.9l-0.365-5h-5.07L61.1,44h-7.916l-1.09,5h8.683L60.185,58z"/></g></g></g></svg>