<?xml version="1.0" standalone="no"?><!DOCTYPE svg PUBLIC "-//W3C//DTD SVG 1.1//EN" "http://www.w3.org/Graphics/SVG/1.1/DTD/svg11.dtd"><svg t="1654585618254" class="icon" viewBox="0 0 1024 1024" version="1.1" xmlns="http://www.w3.org/2000/svg" p-id="6787" xmlns:xlink="http://www.w3.org/1999/xlink" width="200" height="200"><defs><style type="text/css"></style></defs><path d="M549.349855 87.2861c-25.070451-26.196063-45.536125-29.879884-72.755471-1.637254C379.484761 186.135305 280.533227 284.882182 182.707305 384.857c-33.25672 33.973019-65.797142 68.866993-97.31428 104.477266-22.102928 25.070451-28.24263 55.359648-13.712002 85.955831 13.20036 27.62866 34.893974 48.401319 68.253023 46.150095 30.800839-2.148896 35.610273 13.712002 35.405616 39.191766-0.716299 81.453383 0.818627 162.906765-0.409313 244.360148-0.511642 34.996303 12.58639 51.47117 48.605976 49.62926 27.62866-1.432597 55.359648-0.102328 82.988308-0.102328 133.538523 0 133.538523 0 133.231538-133.74318 0-7.674628-0.204657-15.349256 0-23.023883 3.581493-118.905566-24.968122-99.156191 106.11452-102.123713 29.982212-0.716299 36.121915 12.893375 35.712601 39.089437-1.125612 58.327171 0.409313 116.858999-0.306985 175.18617-0.409313 30.903168 12.791046 45.024483 44.103528 44.615169 56.894574-0.716299 113.789148-1.637254 170.581393 0.511642 38.680124 1.432597 51.164185-14.530629 50.345558-51.778155-1.739582-81.453383-0.409313-162.906765-0.306985-244.360148 0-19.033077-0.716299-38.577796 27.62866-36.940542 38.680124 2.251224 66.308784-16.372539 78.690517-51.47117 12.893375-36.735885-0.61397-67.434396-28.140302-95.472369C798.417108 346.483861 673.781153 217.038473 549.349855 87.2861zM766.89997 911.64345c-35.200959-1.739582-70.708904-1.739582-105.909863 0-28.651944 1.432597-37.554512-10.437494-36.838213-37.963825 1.330269-58.327171-0.716299-116.75667 0.61397-175.083841 0.818627-33.666034-12.995703-47.173379-46.354752-46.047767-46.047767 1.534926-92.197861 1.330269-138.245628 0.102328-31.721795-0.818627-44.103528 12.791046-43.489557 44.001199 1.125612 58.327171-1.023284 116.75667 0.61397 175.083841 0.818627 29.982212-9.516538 41.749975-39.805736 39.908064-32.131108-1.944239-64.569202-2.046567-96.70031 0-31.517138 2.046567-44.717498-8.288598-42.977915-41.44299 2.251224-42.875587 0.511642-85.955831 0.511642-129.036075-25.991406-114.710103 16.679524-200.051964 105.807535-272.705106 59.145798-48.196662 109.286699-107.547117 162.088138-163.21375 19.44239-20.568002 33.563705-20.158689 52.801439 0 81.658039 85.444189 164.134706 170.17208 246.611372 254.797642 12.791046 13.20036 17.293495 28.037973 17.191166 45.740781-0.306985 89.12801-0.716299 178.153692 0.306985 267.281703C803.431198 899.67103 796.370541 913.178375 766.89997 911.64345zM893.377836 571.401619c-14.530629 11.256121-26.093734 2.660538-36.326571-7.367643-31.824123-31.210153-63.750575-62.215649-94.653742-94.244429-68.355351-70.504247-135.789747-141.929449-204.247427-212.331368-41.44299-42.67093-49.219946-41.647647-92.197861 2.046567C369.968222 356.921355 274.086539 454.235635 177.693215 551.038273c-14.939942 15.04227-29.879884 41.136005-56.280604 14.632957-24.45648-24.558809-4.093135-41.954632 11.563106-58.224843 116.245028-120.338163 232.797042-240.369341 349.349056-360.40052 15.246927-15.656241 28.8566-32.64275 52.392126-8.083941 117.677626 123.203358 236.173878 245.48576 354.158489 368.279804 9.41421 9.721195 16.679524 21.591286 22.61457 29.265914C912.410912 555.540721 903.099031 563.829319 893.377836 571.401619z" p-id="6788"></path></svg>