<?xml version="1.0" ?><svg id="Layer_1" style="enable-background:new 0 0 560 560;" version="1.1" viewBox="0 0 560 560" xml:space="preserve" xmlns="http://www.w3.org/2000/svg" xmlns:xlink="http://www.w3.org/1999/xlink"><g><g><path d="M524,427H36V133h488V427z M46.6,416.4h466.7V143.6H46.6V416.4z"/></g><path d="M353.3,238.1c-0.8-16.4-8.4-29.2-21-35c-14.3-6.7-32.9-3.1-51.8,9.5c-18.9-12.6-37.6-16.2-51.9-9.5   c-12.6,5.9-20.3,18.6-21,35c-1.3,27.2,17.2,67.8,72.9,100.5c0,0,0,0,0,0h0C336.2,306,354.6,265.3,353.3,238.1z M280.5,326.9   c-47.9-29.8-64-64.9-62.9-88.3c0.6-12.6,6.2-22.2,15.2-26.4c12.2-5.7,29.7-1.2,47.4,12.3c0,0,0,0,0.1,0v0   c17.7-13.5,35.5-18,47.7-12.3c9.1,4.2,14.7,13.9,15.2,26.4C344.4,262.1,328.3,297.1,280.5,326.9z"/><path d="M240.1,293.1L38.6,417.1l5.4,9.1l203.5-125.2C244.9,298.4,242.4,295.7,240.1,293.1z"/><g><path d="M337.3,267.1l184.3-124.4l-6-8.8l-173.3,117C341.5,256,339.8,261.4,337.3,267.1z"/><path d="M218.7,251.5L44.3,133.9l-6,8.8L223.9,268C221.4,262.2,219.6,256.7,218.7,251.5z"/></g><path d="M320.5,293.4c-2.3,2.7-4.8,5.3-7.4,8L516,426.3l5.4-9.1L320.5,293.4z"/></g></svg>